<?xml version="1.0" encoding="utf-8"?>
<!-- Generator: Adobe Illustrator 24.0.2, SVG Export Plug-In . SVG Version: 6.00 Build 0)  -->
<svg version="1.1" id="Layer_1" xmlns="http://www.w3.org/2000/svg" xmlns:xlink="http://www.w3.org/1999/xlink" x="0px" y="0px"
	 viewBox="0 0 550 370" style="enable-background:new 0 0 550 370;" xml:space="preserve">
<style type="text/css">
	.st0{fill:#00BF8C;}
	.st1{fill:#FF156A;}
	.st2{fill:#3AA5CB;}
	.st3{fill:url(#SVGID_1_);}
	.st4{fill:url(#SVGID_2_);}
	.st5{fill:url(#SVGID_3_);}
	.st6{fill:url(#SVGID_4_);}
	.st7{fill:url(#SVGID_5_);}
	.st8{fill:url(#SVGID_6_);}
	.st9{fill:url(#SVGID_7_);}
	.st10{fill:url(#SVGID_8_);}
	.st11{fill:url(#SVGID_9_);}
	.st12{fill:url(#SVGID_10_);}
	.st13{fill:url(#SVGID_11_);}
	.st14{fill:url(#SVGID_12_);}
	.st15{fill:url(#SVGID_13_);}
	.st16{fill:url(#SVGID_14_);}
	.st17{fill:url(#SVGID_15_);}
	.st18{fill:url(#SVGID_16_);}
	.st19{fill:url(#SVGID_17_);}
	.st20{fill:url(#SVGID_18_);}
	.st21{fill:url(#SVGID_19_);}
	.st22{fill:url(#SVGID_20_);}
	.st23{fill:url(#SVGID_21_);}
	.st24{fill:url(#SVGID_22_);}
	.st25{fill:url(#SVGID_23_);}
	.st26{fill:url(#SVGID_24_);}
	.st27{fill:url(#SVGID_25_);}
	.st28{fill:url(#SVGID_26_);}
	.st29{fill:url(#SVGID_27_);}
	.st30{fill:url(#SVGID_28_);}
	.st31{fill:url(#SVGID_29_);}
	.st32{fill:url(#SVGID_30_);}
	.st33{fill:url(#SVGID_31_);}
	.st34{fill:url(#SVGID_32_);}
	.st35{fill:url(#SVGID_33_);}
	.st36{fill:url(#SVGID_34_);}
	.st37{fill:url(#SVGID_35_);}
	.st38{fill:url(#SVGID_36_);}
	.st39{fill:url(#SVGID_37_);}
	.st40{fill:url(#SVGID_38_);}
	.st41{fill:url(#SVGID_39_);}
	.st42{fill:url(#SVGID_40_);}
	.st43{fill:url(#SVGID_41_);}
	.st44{fill:url(#SVGID_42_);}
	.st45{fill:url(#SVGID_43_);}
	.st46{fill:url(#SVGID_44_);}
	.st47{fill:url(#SVGID_45_);}
	.st48{fill:#CCCCCC;}
	.st49{fill:url(#SVGID_46_);}
	.st50{fill:#1D2F55;}
	.st51{fill:#0CB5C0;}
</style>
<g>
	<g>
		
			<ellipse transform="matrix(0.5157 -0.8568 0.8568 0.5157 22.3241 253.8078)" class="st0" cx="235.66" cy="107.16" rx="8.57" ry="8.57"/>
		
			<ellipse transform="matrix(0.6689 -0.7433 0.7433 0.6689 28.6006 278.5298)" class="st1" cx="326.98" cy="107.16" rx="8.57" ry="8.57"/>
	</g>
	
		<ellipse transform="matrix(0.0783 -0.9969 0.9969 0.0783 166.8215 365.9389)" class="st2" cx="281.32" cy="92.75" rx="10.61" ry="10.61"/>
	<g>
		<g>
			<linearGradient id="SVGID_1_" gradientUnits="userSpaceOnUse" x1="279.2702" y1="173.3023" x2="254.0544" y2="153.5288">
				<stop  offset="0" style="stop-color:#2AA4CA"/>
				<stop  offset="1" style="stop-color:#00BF8C"/>
			</linearGradient>
			<path class="st3" d="M247.52,148.62l-0.21-0.32l0.19-0.12C247.51,148.33,247.52,148.47,247.52,148.62z"/>
			<linearGradient id="SVGID_2_" gradientUnits="userSpaceOnUse" x1="278.011" y1="174.9088" x2="252.7949" y2="155.1351">
				<stop  offset="0" style="stop-color:#2AA4CA"/>
				<stop  offset="1" style="stop-color:#00BF8C"/>
			</linearGradient>
			<path class="st4" d="M277.57,179.48c-1.07,0.65-2.17,1.12-3.26,1.4c0,0,0,0,0,0c-0.83,0.21-1.66,0.32-2.48,0.32h-0.07
				c-1.21-0.01-2.43-0.25-3.62-0.7c-0.08-0.12-0.17-0.24-0.25-0.37l-0.02-0.02l-0.02-0.02l-0.01-0.01l-0.02-0.04h0l-0.89-1.38
				l-0.04-0.06l-2.18-3.37l-0.44-0.68l-0.11-0.17l-0.05-0.07l-2.82-4.37v0l-1.91-2.96l-0.96-1.48l-1.91-2.95v0l-2.87-4.43l0,0
				l-0.18-0.29c-0.47-2.29-0.81-4.66-0.99-7.1c-0.09-1.2-0.15-2.41-0.17-3.64l0-0.31l0-1.05l0-0.17l0.01-0.46l0-0.04l0-0.03
				c0.03-1.15,0.12-2.29,0.25-3.39l1.51,2.33l2.61,4.05l1.74,2.69l2.87,4.44l1.91,2.96l0.96,1.49l1.91,2.95l2.87,4.44l2.13,3.29
				l2.61,4.05l0.88,1.37c0,0.01,0.01,0.01,0.01,0.02c0.19,0.28,0.38,0.55,0.57,0.81l0.07,0.09c0.41,0.57,0.84,1.12,1.27,1.64
				C276.83,178.66,277.2,179.08,277.57,179.48z"/>
			<linearGradient id="SVGID_3_" gradientUnits="userSpaceOnUse" x1="279.2702" y1="173.3023" x2="254.0544" y2="153.5288">
				<stop  offset="0" style="stop-color:#2AA4CA"/>
				<stop  offset="1" style="stop-color:#00BF8C"/>
			</linearGradient>
			<path class="st5" d="M247.52,148.62l-0.21-0.32l0.19-0.12C247.51,148.33,247.52,148.47,247.52,148.62z"/>
			<linearGradient id="SVGID_4_" gradientUnits="userSpaceOnUse" x1="271.8062" y1="182.8213" x2="246.5902" y2="163.0476">
				<stop  offset="0" style="stop-color:#2AA4CA"/>
				<stop  offset="1" style="stop-color:#00BF8C"/>
			</linearGradient>
			<path class="st6" d="M267.82,180.04c-0.31-0.46-0.61-0.92-0.89-1.38L267.82,180.04z"/>
			<linearGradient id="SVGID_5_" gradientUnits="userSpaceOnUse" x1="271.6367" y1="183.0382" x2="246.4185" y2="163.2627">
				<stop  offset="0" style="stop-color:#2AA4CA"/>
				<stop  offset="1" style="stop-color:#00BF8C"/>
			</linearGradient>
			<path class="st7" d="M267.84,180.07c-0.01-0.01-0.02-0.02-0.02-0.04h0L267.84,180.07z"/>
		</g>
		<linearGradient id="SVGID_6_" gradientUnits="userSpaceOnUse" x1="301.4102" y1="121.6328" x2="264.6709" y2="155.6506">
			<stop  offset="0" style="stop-color:#2AA4CA"/>
			<stop  offset="1" style="stop-color:#00BF8C"/>
		</linearGradient>
		<path class="st8" d="M317.55,123.72c-1.75,1.26-3.34,2.87-4.74,4.82l-0.04,0.04l-0.27,0.4c0,0,0,0,0,0.01
			c-0.01,0-0.01,0.02-0.02,0.03c-0.04,0.06-0.09,0.13-0.13,0.19c-0.07,0.11-0.17,0.26-0.26,0.4c-0.03,0.04-0.05,0.08-0.07,0.11
			c-0.08,0.12-0.15,0.23-0.21,0.32c-0.59-1.24-1.24-2.42-1.97-3.5c-2.9-4.33-6.55-6.71-10.26-6.71c-3.77,0-7.45,2.44-10.37,6.87
			l-0.25,0.39l-0.01,0.01l-0.5,0.77l-2.37,3.67l-0.11,0.17h0l-0.13,0.2l-0.09-0.06l0,0l0.11,0.07l-2.61,4.04l-1.93,2.98l-2.87,4.44
			l-6.55,10.14l-0.01-0.01l-2.96,4.58l-2.87-4.44l0,0l-1.91-2.96l4.35-6.74h0.02l5.15-7.97l0.01-0.01l2.82-4.37l0.04-0.07l2.56-3.97
			l-0.01-0.01l2.21-3.43l0.4-0.61l0.57-0.88v0l0.22-0.33c0.57-0.87,1.17-1.69,1.79-2.45c4.23-5.21,9.57-8.05,15.3-8.05
			c6.48,0,12.49,3.65,16.93,10.27C316.88,122.6,317.22,123.15,317.55,123.72z"/>
		<linearGradient id="SVGID_7_" gradientUnits="userSpaceOnUse" x1="298.1443" y1="161.5592" x2="314.745" y2="179.2485">
			<stop  offset="0" style="stop-color:#2AA4CA"/>
			<stop  offset="1" style="stop-color:#00BF8C"/>
		</linearGradient>
		<path class="st9" d="M323.19,145.64v0.02l-0.01,1.37v0.11c0,0.05,0,0.1,0,0.16c-0.11,7.05-1.25,13.88-3.29,20.06
			c-0.57,1.74-1.22,3.43-1.94,5.06c-1.05,2.39-2.25,4.65-3.59,6.75l-0.03,0.04c-0.08,0.12-0.16,0.24-0.23,0.36
			c-0.06,0.09-0.12,0.19-0.18,0.28c-0.97,1.46-2,2.82-3.08,4.08c-2.1,2.44-4.41,4.48-6.88,6.08c-4.13,2.68-8.56,4.04-13.14,4.04
			c-0.98,0-1.95-0.06-2.91-0.19c2.58-1.72,5.02-3.86,7.26-6.39c0.66-0.74,1.3-1.52,1.92-2.34c0.07-0.09,0.14-0.18,0.21-0.28h0.14
			l0.07-0.1l0.12-0.18l0.07-0.11l0.1-0.16l0,0c2.08-1.04,4.07-2.55,5.93-4.49c1.06-1.11,2.08-2.36,3.05-3.74
			c0.21-0.29,0.41-0.59,0.61-0.9c0.07-0.11,0.14-0.21,0.21-0.32l0.01-0.02c1.18-1.85,2.23-3.85,3.15-5.98
			c0.71-1.65,1.34-3.38,1.89-5.18c0.39-1.3,0.75-2.63,1.05-3.99v0l3.06-4.73l2.87-4.44l2.36-3.65l1.2-1.86c0,0.07,0,0.14,0,0.22
			v0.14l0,0.07l0,0.03C323.19,145.53,323.19,145.58,323.19,145.64z"/>
		<linearGradient id="SVGID_8_" gradientUnits="userSpaceOnUse" x1="253.5997" y1="169.1248" x2="256.4722" y2="169.1248">
			<stop  offset="0" style="stop-color:#FFE63F"/>
			<stop  offset="1" style="stop-color:#00BF8C"/>
		</linearGradient>
		<polygon class="st10" points="256.47,171.34 256.47,171.35 253.6,166.9 		"/>
		<g>
			<linearGradient id="SVGID_9_" gradientUnits="userSpaceOnUse" x1="294.1159" y1="180.5969" x2="294.7485" y2="180.5969">
				<stop  offset="0" style="stop-color:#FFE63F"/>
				<stop  offset="1" style="stop-color:#00BF8C"/>
			</linearGradient>
			<path class="st11" d="M294.75,180.13l-0.23,0.36l-0.37,0.57l-0.03-0.02c0.13-0.18,0.25-0.36,0.38-0.54
				C294.58,180.38,294.66,180.26,294.75,180.13z"/>
			<linearGradient id="SVGID_10_" gradientUnits="userSpaceOnUse" x1="295.0536" y1="180.2895" x2="295.1194" y2="180.2895">
				<stop  offset="0" style="stop-color:#FFE63F"/>
				<stop  offset="1" style="stop-color:#00BF8C"/>
			</linearGradient>
			<polygon class="st12" points="295.12,180.31 295.05,180.27 295.06,180.27 			"/>
			<linearGradient id="SVGID_11_" gradientUnits="userSpaceOnUse" x1="294.1159" y1="180.5969" x2="294.7485" y2="180.5969">
				<stop  offset="0" style="stop-color:#FFE63F"/>
				<stop  offset="1" style="stop-color:#00BF8C"/>
			</linearGradient>
			<path class="st13" d="M294.75,180.13l-0.23,0.36l-0.37,0.57l-0.03-0.02c0.13-0.18,0.25-0.36,0.38-0.54
				C294.58,180.38,294.66,180.26,294.75,180.13z"/>
			<linearGradient id="SVGID_12_" gradientUnits="userSpaceOnUse" x1="322.744" y1="136.4577" x2="323.1872" y2="136.4577">
				<stop  offset="0" style="stop-color:#FFE63F"/>
				<stop  offset="1" style="stop-color:#00BF8C"/>
			</linearGradient>
			<path class="st14" d="M323.19,136.12l-0.44,0.68c0.13-0.22,0.27-0.43,0.4-0.61L323.19,136.12z"/>
			<linearGradient id="SVGID_13_" gradientUnits="userSpaceOnUse" x1="322.744" y1="136.4577" x2="323.1872" y2="136.4577">
				<stop  offset="0" style="stop-color:#FFE63F"/>
				<stop  offset="1" style="stop-color:#00BF8C"/>
			</linearGradient>
			<path class="st15" d="M323.19,136.12l-0.44,0.68c0.13-0.22,0.27-0.43,0.4-0.61L323.19,136.12z"/>
		</g>
		<linearGradient id="SVGID_14_" gradientUnits="userSpaceOnUse" x1="311.7953" y1="130.0818" x2="311.8628" y2="130.0818">
			<stop  offset="0" style="stop-color:#FFE63F"/>
			<stop  offset="1" style="stop-color:#00BF8C"/>
		</linearGradient>
		<path class="st16" d="M311.86,130.13l-0.07-0.04c0.01-0.01,0.02-0.03,0.03-0.04C311.84,130.07,311.85,130.1,311.86,130.13z"/>
		<linearGradient id="SVGID_15_" gradientUnits="userSpaceOnUse" x1="311.8178" y1="129.8747" x2="312.025" y2="129.8747">
			<stop  offset="0" style="stop-color:#FFE63F"/>
			<stop  offset="1" style="stop-color:#00BF8C"/>
		</linearGradient>
		<path class="st17" d="M312.02,129.71c-0.07,0.11-0.14,0.22-0.2,0.33c0,0,0-0.01,0-0.01C311.87,129.94,311.95,129.83,312.02,129.71
			z"/>
		<linearGradient id="SVGID_16_" gradientUnits="userSpaceOnUse" x1="312.4842" y1="128.998" x2="312.505" y2="128.998">
			<stop  offset="0" style="stop-color:#FFE63F"/>
			<stop  offset="1" style="stop-color:#00BF8C"/>
		</linearGradient>
		<path class="st18" d="M312.51,128.98c-0.01,0.01-0.01,0.02-0.02,0.03C312.49,129,312.5,128.99,312.51,128.98z"/>
		<linearGradient id="SVGID_17_" gradientUnits="userSpaceOnUse" x1="315.9266" y1="132.1418" x2="316.4677" y2="132.1418">
			<stop  offset="0" style="stop-color:#FFE63F"/>
			<stop  offset="1" style="stop-color:#00BF8C"/>
		</linearGradient>
		<path class="st19" d="M316.47,131.72l-0.54,0.84C316.1,132.26,316.28,131.99,316.47,131.72z"/>
		<linearGradient id="SVGID_18_" gradientUnits="userSpaceOnUse" x1="304.4849" y1="172.7302" x2="306.0488" y2="172.7302">
			<stop  offset="0" style="stop-color:#FFE63F"/>
			<stop  offset="1" style="stop-color:#00BF8C"/>
		</linearGradient>
		<polygon class="st20" points="306.05,171.52 305.39,172.54 304.49,173.94 304.48,173.94 		"/>
		<linearGradient id="SVGID_19_" gradientUnits="userSpaceOnUse" x1="306.1596" y1="169.1248" x2="309.0321" y2="169.1248">
			<stop  offset="0" style="stop-color:#FFE63F"/>
			<stop  offset="1" style="stop-color:#00BF8C"/>
		</linearGradient>
		<polygon class="st21" points="309.03,166.9 306.16,171.35 306.16,171.34 		"/>
		<linearGradient id="SVGID_20_" gradientUnits="userSpaceOnUse" x1="322.744" y1="136.4577" x2="323.1872" y2="136.4577">
			<stop  offset="0" style="stop-color:#FFE63F"/>
			<stop  offset="1" style="stop-color:#00BF8C"/>
		</linearGradient>
		<path class="st22" d="M323.19,136.12l-0.44,0.68c0.13-0.22,0.27-0.43,0.4-0.61L323.19,136.12z"/>
		<linearGradient id="SVGID_21_" gradientUnits="userSpaceOnUse" x1="304.4849" y1="172.7302" x2="306.0488" y2="172.7302">
			<stop  offset="0" style="stop-color:#FFE63F"/>
			<stop  offset="1" style="stop-color:#00BF8C"/>
		</linearGradient>
		<polygon class="st23" points="306.05,171.52 305.39,172.54 304.49,173.94 304.48,173.94 		"/>
		<linearGradient id="SVGID_22_" gradientUnits="userSpaceOnUse" x1="306.1596" y1="169.1248" x2="309.0321" y2="169.1248">
			<stop  offset="0" style="stop-color:#FFE63F"/>
			<stop  offset="1" style="stop-color:#00BF8C"/>
		</linearGradient>
		<polygon class="st24" points="309.03,166.9 306.16,171.35 306.16,171.34 		"/>
		<linearGradient id="SVGID_23_" gradientUnits="userSpaceOnUse" x1="311.7953" y1="130.0818" x2="311.8628" y2="130.0818">
			<stop  offset="0" style="stop-color:#FFE63F"/>
			<stop  offset="1" style="stop-color:#00BF8C"/>
		</linearGradient>
		<path class="st25" d="M311.86,130.13l-0.07-0.04c0.01-0.01,0.02-0.03,0.03-0.04C311.84,130.07,311.85,130.1,311.86,130.13z"/>
		<linearGradient id="SVGID_24_" gradientUnits="userSpaceOnUse" x1="315.9266" y1="132.1418" x2="316.4677" y2="132.1418">
			<stop  offset="0" style="stop-color:#FFE63F"/>
			<stop  offset="1" style="stop-color:#00BF8C"/>
		</linearGradient>
		<path class="st26" d="M316.47,131.72l-0.54,0.84C316.1,132.26,316.28,131.99,316.47,131.72z"/>
		<linearGradient id="SVGID_25_" gradientUnits="userSpaceOnUse" x1="315.9266" y1="132.1418" x2="316.4677" y2="132.1418">
			<stop  offset="0" style="stop-color:#FFE63F"/>
			<stop  offset="1" style="stop-color:#00BF8C"/>
		</linearGradient>
		<path class="st27" d="M316.47,131.72l-0.54,0.84C316.1,132.26,316.28,131.99,316.47,131.72z"/>
		<linearGradient id="SVGID_26_" gradientUnits="userSpaceOnUse" x1="306.3787" y1="174.9512" x2="335.4044" y2="139.3948">
			<stop  offset="0" style="stop-color:#2AA4CA"/>
			<stop  offset="0.0979" style="stop-color:#359DC5"/>
			<stop  offset="0.2702" style="stop-color:#5389B8"/>
			<stop  offset="0.4954" style="stop-color:#826AA3"/>
			<stop  offset="0.5513" style="stop-color:#8F619D"/>
			<stop  offset="0.7472" style="stop-color:#BE4188"/>
			<stop  offset="1" style="stop-color:#FF156A"/>
		</linearGradient>
		<path class="st28" d="M342.04,147.43c-0.22,8.59-2.58,16.67-6.66,22.76c-4.26,6.36-9.97,9.98-16.16,10.26
			c1.78-2.98,3.31-6.23,4.57-9.69c1.77-1.14,3.44-2.84,4.92-5.04c3.24-4.84,5.13-11.41,5.3-18.51l0-0.04c0.02-0.6,0-1.72-0.01-2.16
			c-0.35-6.95-3.78-11.62-6.78-11.62c-0.24,0-0.47,0.03-0.7,0.08c-1.49,0.34-2.67,1.68-3.31,2.59c-0.01,0.01-0.02,0.03-0.03,0.04v0
			l-0.01,0.01l-0.05,0.07c-0.13,0.18-0.26,0.39-0.4,0.61c0,0.01-0.01,0.01-0.01,0.02c-0.01,0.02-0.02,0.04-0.03,0.05
			c0,0,0,0.01-0.01,0.01c-0.01,0.02-0.02,0.03-0.03,0.04l-0.25,0.39l-4.49,6.95l-2.61,4.05l-0.21,0.32l-2.41,3.73l-3.53,5.46
			l-0.18,0.29l-0.22-0.34l-3.37-5.25l-1.18-1.82l1.74-2.69l2.61-4.05l1.51-2.33v0l1.1-1.71l2.68-4.15v0l2-3.09
			c0.01-0.01,0.01-0.02,0.02-0.03c0-0.01,0.01-0.01,0.01-0.02c0.01-0.02,0.02-0.03,0.03-0.05l0.54-0.84
			c0.01-0.01,0.02-0.03,0.03-0.04c0-0.01,0.01-0.01,0.01-0.02c0,0,0-0.01,0.01-0.01c0,0,0,0,0,0l0.04-0.06
			c0.95-1.38,2.02-2.54,3.19-3.47c1.32-1.06,2.75-1.83,4.26-2.28c1.04-0.31,2.12-0.47,3.22-0.47c7.9,0,14.26,8.3,14.8,19.3l0,0.08
			C342.03,144.91,342.08,146.44,342.04,147.43z"/>
		<linearGradient id="SVGID_27_" gradientUnits="userSpaceOnUse" x1="224.6475" y1="133.6922" x2="245.3283" y2="169.6115">
			<stop  offset="0" style="stop-color:#FFE63F"/>
			<stop  offset="1" style="stop-color:#00BF8C"/>
		</linearGradient>
		<path class="st29" d="M258.15,173.94c-0.73,0.78-1.5,1.49-2.28,2.14c-2.21,1.81-4.61,3.08-7.14,3.77c-1.48,0.4-3,0.61-4.54,0.61
			c-0.26,0-0.52-0.01-0.78-0.02c-6.18-0.28-11.9-3.9-16.16-10.26c-4.08-6.09-6.44-14.17-6.66-22.76c-0.03-0.99,0.01-2.51,0.01-2.69
			l0-0.08c0.53-11,6.89-19.3,14.8-19.3c1.1,0,2.18,0.16,3.22,0.47c-1.04,2.41-1.88,4.97-2.53,7.64c-0.22-0.05-0.46-0.08-0.7-0.08
			c-3,0-6.43,4.67-6.78,11.62c-0.01,0.43-0.04,1.55-0.01,2.16l0,0.04c0.18,7.1,2.06,13.67,5.3,18.51c1.48,2.2,3.14,3.9,4.92,5.04
			c1.71,1.1,3.52,1.68,5.35,1.68c0.17,0,0.34,0,0.5-0.01c2.52-0.15,4.99-1.38,7.2-3.56c0.59-0.58,1.16-1.24,1.71-1.96l2.87,4.45
			L258.15,173.94z"/>
		<linearGradient id="SVGID_28_" gradientUnits="userSpaceOnUse" x1="233.0206" y1="125.726" x2="272.5681" y2="150.2164">
			<stop  offset="0" style="stop-color:#2AA4CA"/>
			<stop  offset="0.0979" style="stop-color:#359DC5"/>
			<stop  offset="0.2702" style="stop-color:#5389B8"/>
			<stop  offset="0.4954" style="stop-color:#826AA3"/>
			<stop  offset="0.5513" style="stop-color:#8F619D"/>
			<stop  offset="0.7472" style="stop-color:#BE4188"/>
			<stop  offset="1" style="stop-color:#FF156A"/>
		</linearGradient>
		<path class="st30" d="M263.05,111.78c-6.48,0-12.49,3.65-16.93,10.27c-0.36,0.54-0.71,1.09-1.04,1.66
			c-0.81,1.38-1.54,2.85-2.19,4.4c-0.94,2.24-1.69,4.63-2.26,7.13c-0.1,0.45-0.2,0.9-0.29,1.36v0c-0.05,0.23-0.09,0.47-0.13,0.7
			c-0.44,2.44-0.69,4.96-0.76,7.53c0,0.05,0,0.11,0,0.17c0,0.07,0,0.14,0,0.22v0.14l0,0.07l0,0.03c0,0.06,0,0.11,0,0.17v0.02
			l0.01,1.37v0.11c0,0.05,0,0.1,0,0.16c0.11,7.05,1.25,13.88,3.29,20.06c0.49,0.17,0.97,0.26,1.44,0.26c1.88,0,3.97-1.42,5.81-3.94
			c-0.39-1.3-0.75-2.63-1.05-3.98v0c-0.44-1.96-0.79-3.98-1.03-6.04c-0.2-1.65-0.33-3.33-0.39-5.03l-0.21-0.32l0.19-0.12
			c-0.01-0.35-0.02-0.69-0.02-1.04l0-0.34l0-1.13v-0.01l0-0.14v-0.05l0.01-0.23l0-0.03c0-0.06,0-0.11,0-0.17
			c0.02-0.9,0.07-1.8,0.15-2.68c0.2-2.29,0.58-4.51,1.13-6.62c0.52-1.99,1.19-3.88,2.01-5.63c0.01-0.03,0.03-0.05,0.04-0.08
			c-0.05-0.08,0-0.01,0-0.01c0.59-1.25,1.24-2.42,1.97-3.5c2.9-4.33,6.55-6.71,10.26-6.71c3.77,0,7.45,2.44,10.37,6.87l0.25,0.39
			l4.68-7.24C274.12,114.62,268.78,111.78,263.05,111.78z"/>
		<linearGradient id="SVGID_29_" gradientUnits="userSpaceOnUse" x1="299.0247" y1="167.0052" x2="256.8427" y2="194.4915">
			<stop  offset="0" style="stop-color:#2AA4CA"/>
			<stop  offset="0.0979" style="stop-color:#359DC5"/>
			<stop  offset="0.2702" style="stop-color:#5389B8"/>
			<stop  offset="0.4954" style="stop-color:#826AA3"/>
			<stop  offset="0.5513" style="stop-color:#8F619D"/>
			<stop  offset="0.7472" style="stop-color:#BE4188"/>
			<stop  offset="1" style="stop-color:#FF156A"/>
		</linearGradient>
		<path class="st31" d="M298.52,174.3l-0.05,0.07l-0.11,0.17l-0.44,0.68l-2.18,3.37l-0.04,0.06l-0.89,1.38h0l-0.02,0.04l-0.01,0.01
			l-0.01,0.01l-0.02,0.04c-0.09,0.13-0.17,0.25-0.25,0.37c-0.13,0.18-0.25,0.36-0.38,0.54c-0.03,0.04-0.06,0.08-0.08,0.12
			c-0.02,0.03-0.04,0.06-0.07,0.09c-0.32,0.44-0.65,0.88-0.98,1.3c-0.62,0.79-1.26,1.54-1.92,2.26c-0.38,0.41-0.76,0.81-1.15,1.19
			c-2.65,2.63-5.55,4.64-8.61,6c-2.13,0.95-4.33,1.57-6.58,1.86c-0.96,0.13-1.93,0.19-2.91,0.19c-4.59,0-9.01-1.36-13.14-4.04
			c-2.47-1.6-4.78-3.64-6.88-6.08c2.51-0.92,4.9-2.3,7.11-4.11c1.86,1.94,3.85,3.45,5.93,4.49h0v0l0,0v0
			c0.39,0.19,0.78,0.37,1.17,0.53c1.27,0.52,2.56,0.88,3.87,1.05c0.64,0.09,1.29,0.13,1.94,0.13c0.29,0,0.59-0.01,0.88-0.03h0
			c2.96-0.18,5.88-1.28,8.6-3.21c1.3-0.92,2.55-2.02,3.74-3.3c0.37-0.4,0.74-0.82,1.1-1.26c0.43-0.52,0.86-1.07,1.27-1.64l0.07-0.09
			c0.19-0.26,0.37-0.53,0.57-0.81c0-0.01,0.01-0.01,0.01-0.02l0.88-1.37l2.61-4.05l2.13-3.3l0.22,0.35l2.6,4.04l0.81,1.26l0.01,0.01
			C297.73,173.2,298.12,173.75,298.52,174.3z"/>
		<g>
			<linearGradient id="SVGID_30_" gradientUnits="userSpaceOnUse" x1="234.2647" y1="128.1549" x2="254.9455" y2="164.0742">
				<stop  offset="0" style="stop-color:#FFE63F"/>
				<stop  offset="1" style="stop-color:#00BF8C"/>
			</linearGradient>
			<path class="st32" d="M261.29,169.93L261.29,169.93l-0.02,0.04c-0.62,0.94-1.27,1.82-1.94,2.64c-0.38,0.47-0.78,0.91-1.18,1.34
				l-1.67-2.59v0l-2.87-4.44c0.32-0.42,0.64-0.87,0.95-1.34l0.75-1.16l1.21-1.87l1.91,2.95l0.96,1.48L261.29,169.93z"/>
			<linearGradient id="SVGID_31_" gradientUnits="userSpaceOnUse" x1="302.0823" y1="122.3586" x2="265.343" y2="156.3765">
				<stop  offset="0" style="stop-color:#2AA4CA"/>
				<stop  offset="1" style="stop-color:#00BF8C"/>
			</linearGradient>
			<polygon class="st33" points="268.93,158.08 266.06,162.52 264.15,159.56 263.19,158.08 261.28,155.12 264.15,150.68 
				266.06,153.64 266.06,153.64 			"/>
			<linearGradient id="SVGID_32_" gradientUnits="userSpaceOnUse" x1="312.0005" y1="133.0702" x2="275.2612" y2="167.0881">
				<stop  offset="0" style="stop-color:#2AA4CA"/>
				<stop  offset="1" style="stop-color:#00BF8C"/>
			</linearGradient>
			<path class="st34" d="M319.74,128.11c-1.16,0.93-2.24,2.1-3.19,3.47l-0.04,0.06c0,0,0,0,0,0c0,0,0,0.01-0.01,0.01
				c0,0.01-0.01,0.01-0.01,0.02c-0.01,0.01-0.02,0.03-0.03,0.04c-0.18,0.26-0.36,0.54-0.54,0.84c-0.01,0.02-0.02,0.03-0.03,0.05
				c0,0.01-0.01,0.01-0.01,0.02c0,0.01-0.01,0.02-0.02,0.03l-2,3.09c-0.52-1.99-1.19-3.88-2-5.62c-0.01-0.03-0.03-0.06-0.04-0.09
				c0.07-0.11,0.13-0.22,0.2-0.33c0.02-0.04,0.05-0.08,0.07-0.11c0.09-0.14,0.19-0.29,0.26-0.4c0.04-0.06,0.08-0.13,0.13-0.19
				c0.01-0.01,0.01-0.02,0.02-0.03c0,0,0-0.01,0-0.01l0.27-0.4l0.04-0.04c1.4-1.95,2.99-3.56,4.74-4.82
				C318.37,125.1,319.1,126.57,319.74,128.11z"/>
			<linearGradient id="SVGID_33_" gradientUnits="userSpaceOnUse" x1="315.2455" y1="145.5105" x2="331.8462" y2="163.1997">
				<stop  offset="0" style="stop-color:#2AA4CA"/>
				<stop  offset="1" style="stop-color:#00BF8C"/>
			</linearGradient>
			<path class="st35" d="M323.18,145.01l-1.2,1.86h0l-2.36,3.65l-2.87,4.44l-3.06,4.73c0.44-1.96,0.79-3.98,1.03-6.04
				c0.2-1.65,0.33-3.33,0.39-5.03l0.21-0.32l2.61-4.05l4.49-6.95c0.44,2.44,0.69,4.96,0.76,7.53
				C323.17,144.89,323.18,144.95,323.18,145.01z"/>
			<linearGradient id="SVGID_34_" gradientUnits="userSpaceOnUse" x1="316.3098" y1="178.1915" x2="268.0545" y2="139.7324">
				<stop  offset="0" style="stop-color:#2AA4CA"/>
				<stop  offset="0.0979" style="stop-color:#359DC5"/>
				<stop  offset="0.2702" style="stop-color:#5389B8"/>
				<stop  offset="0.4954" style="stop-color:#826AA3"/>
				<stop  offset="0.5513" style="stop-color:#8F619D"/>
				<stop  offset="0.7472" style="stop-color:#BE4188"/>
				<stop  offset="1" style="stop-color:#FF156A"/>
			</linearGradient>
			<path class="st36" d="M310.75,168.86c-0.92,2.13-1.97,4.13-3.15,5.98l-0.01,0.02c-0.07,0.11-0.14,0.21-0.21,0.32
				c-0.2,0.31-0.4,0.61-0.61,0.9c-0.79-0.64-1.55-1.36-2.28-2.14l0.9-1.4l0.66-1.02l0.09-0.14l0.02-0.04l2.87-4.45
				C309.58,167.62,310.16,168.27,310.75,168.86z"/>
			<linearGradient id="SVGID_35_" gradientUnits="userSpaceOnUse" x1="314.4308" y1="181.5243" x2="343.4564" y2="145.9679">
				<stop  offset="0" style="stop-color:#2AA4CA"/>
				<stop  offset="0.0979" style="stop-color:#359DC5"/>
				<stop  offset="0.2702" style="stop-color:#5389B8"/>
				<stop  offset="0.4954" style="stop-color:#826AA3"/>
				<stop  offset="0.5513" style="stop-color:#8F619D"/>
				<stop  offset="0.7472" style="stop-color:#BE4188"/>
				<stop  offset="1" style="stop-color:#FF156A"/>
			</linearGradient>
			<path class="st37" d="M323.8,170.76c-1.26,3.45-2.79,6.7-4.57,9.69v0c-0.26,0.01-0.52,0.02-0.78,0.02
				c-1.55,0-3.07-0.21-4.54-0.61c0.06-0.09,0.12-0.18,0.18-0.28c0.08-0.12,0.16-0.24,0.23-0.36l0.03-0.04
				c1.34-2.1,2.54-4.36,3.59-6.75c0.17,0.01,0.34,0.01,0.5,0.01C320.28,172.43,322.09,171.86,323.8,170.76z"/>
			<linearGradient id="SVGID_36_" gradientUnits="userSpaceOnUse" x1="237.0506" y1="126.551" x2="257.7314" y2="162.4703">
				<stop  offset="0" style="stop-color:#FFE63F"/>
				<stop  offset="1" style="stop-color:#00BF8C"/>
			</linearGradient>
			<path class="st38" d="M242.89,128.11c-0.94,2.24-1.69,4.63-2.26,7.13c-0.1,0.45-0.2,0.9-0.29,1.36v0
				c-0.05,0.23-0.09,0.47-0.13,0.7l-0.25-0.39c-0.01-0.01-0.02-0.03-0.03-0.04c0,0,0-0.01-0.01-0.01c-0.01-0.01-0.02-0.03-0.03-0.05
				c0-0.01-0.01-0.01-0.01-0.02c-0.13-0.22-0.27-0.43-0.4-0.61l-0.05-0.07l-0.01-0.01v0c-0.01-0.01-0.02-0.03-0.03-0.04
				c-0.64-0.9-1.82-2.25-3.31-2.59c0.64-2.67,1.49-5.23,2.53-7.64C240.14,126.29,241.57,127.05,242.89,128.11z"/>
			<linearGradient id="SVGID_37_" gradientUnits="userSpaceOnUse" x1="281.4286" y1="170.5506" x2="256.2125" y2="150.7768">
				<stop  offset="0" style="stop-color:#2AA4CA"/>
				<stop  offset="1" style="stop-color:#00BF8C"/>
			</linearGradient>
			<path class="st39" d="M253.46,157.81l-3.53-5.46l-2.41-3.73c-0.01-0.15-0.01-0.29-0.02-0.44c-0.01-0.35-0.02-0.69-0.02-1.04
				l0-0.34l0-1.13v-0.01l0-0.14v-0.05l0.01-0.23l0-0.03c0-0.06,0-0.11,0-0.17c0.02-0.9,0.07-1.8,0.15-2.68
				c0.2-2.29,0.58-4.51,1.13-6.62l2.68,4.15l1.1,1.71c-0.13,1.11-0.21,2.24-0.25,3.39l0,0.03l0,0.04l-0.01,0.46l0,0.17l0,1.05
				l0,0.31c0.02,1.22,0.07,2.44,0.17,3.64C252.65,153.14,252.98,155.52,253.46,157.81z"/>
			<linearGradient id="SVGID_38_" gradientUnits="userSpaceOnUse" x1="273.1177" y1="181.1488" x2="247.9017" y2="161.375">
				<stop  offset="0" style="stop-color:#2AA4CA"/>
				<stop  offset="1" style="stop-color:#00BF8C"/>
			</linearGradient>
			<path class="st40" d="M281.32,182.78c-2.73,1.93-5.64,3.03-8.6,3.21h0c-0.39-0.38-0.77-0.78-1.15-1.19
				c-0.66-0.71-1.3-1.47-1.92-2.26c-0.33-0.42-0.66-0.85-0.98-1.3c-0.02-0.03-0.04-0.06-0.07-0.09c-0.03-0.04-0.05-0.08-0.08-0.12
				c-0.13-0.18-0.25-0.36-0.38-0.54c1.2,0.46,2.41,0.7,3.62,0.7h0.07c0.82,0,1.65-0.11,2.48-0.32c0,0,0,0,0,0
				c1.1-0.29,2.19-0.76,3.26-1.4C278.77,180.76,280.02,181.86,281.32,182.78z"/>
			<linearGradient id="SVGID_39_" gradientUnits="userSpaceOnUse" x1="280.3059" y1="178.2999" x2="296.9066" y2="195.9892">
				<stop  offset="0" style="stop-color:#2AA4CA"/>
				<stop  offset="1" style="stop-color:#00BF8C"/>
			</linearGradient>
			<path class="st41" d="M297.79,184.31l-0.1,0.16l-0.07,0.11l-0.12,0.18l-0.07,0.1h-0.14c-0.07,0.09-0.14,0.19-0.21,0.28
				c-0.62,0.81-1.27,1.59-1.92,2.34c-2.24,2.54-4.68,4.68-7.26,6.39h0c-2.25-0.29-4.45-0.92-6.58-1.86c3.06-1.36,5.96-3.38,8.61-6
				c0.29,0.02,0.59,0.03,0.88,0.03c0.65,0,1.29-0.04,1.93-0.13c1.31-0.17,2.61-0.53,3.88-1.05
				C297.01,184.68,297.4,184.5,297.79,184.31z"/>
			<linearGradient id="SVGID_40_" gradientUnits="userSpaceOnUse" x1="245.3573" y1="105.8043" x2="284.9048" y2="130.2947">
				<stop  offset="0" style="stop-color:#2AA4CA"/>
				<stop  offset="0.0979" style="stop-color:#359DC5"/>
				<stop  offset="0.2702" style="stop-color:#5389B8"/>
				<stop  offset="0.4954" style="stop-color:#826AA3"/>
				<stop  offset="0.5513" style="stop-color:#8F619D"/>
				<stop  offset="0.7472" style="stop-color:#BE4188"/>
				<stop  offset="1" style="stop-color:#FF156A"/>
			</linearGradient>
			<path class="st42" d="M279.1,127.54l0.01,0.01l-2.56,3.97l-2.37-3.67l-0.5-0.77l-0.01-0.01l4.68-7.24
				c0.62,0.77,1.22,1.58,1.79,2.45l0.22,0.33v0l0.57,0.88l0.4,0.61L279.1,127.54z"/>
			<linearGradient id="SVGID_41_" gradientUnits="userSpaceOnUse" x1="218.0449" y1="149.9088" x2="257.5924" y2="174.3992">
				<stop  offset="0" style="stop-color:#2AA4CA"/>
				<stop  offset="0.0979" style="stop-color:#359DC5"/>
				<stop  offset="0.2702" style="stop-color:#5389B8"/>
				<stop  offset="0.4954" style="stop-color:#826AA3"/>
				<stop  offset="0.5513" style="stop-color:#8F619D"/>
				<stop  offset="0.7472" style="stop-color:#BE4188"/>
				<stop  offset="1" style="stop-color:#FF156A"/>
			</linearGradient>
			<path class="st43" d="M251.88,168.86c-2.21,2.19-4.68,3.42-7.2,3.56c-0.72-1.63-1.36-3.32-1.94-5.06
				c0.49,0.17,0.97,0.26,1.44,0.26c1.88,0,3.97-1.42,5.81-3.94C250.54,165.47,251.17,167.2,251.88,168.86z"/>
			<linearGradient id="SVGID_42_" gradientUnits="userSpaceOnUse" x1="291.4629" y1="155.4004" x2="249.2807" y2="182.8868">
				<stop  offset="0" style="stop-color:#2AA4CA"/>
				<stop  offset="0.0979" style="stop-color:#359DC5"/>
				<stop  offset="0.2702" style="stop-color:#5389B8"/>
				<stop  offset="0.4954" style="stop-color:#826AA3"/>
				<stop  offset="0.5513" style="stop-color:#8F619D"/>
				<stop  offset="0.7472" style="stop-color:#BE4188"/>
				<stop  offset="1" style="stop-color:#FF156A"/>
			</linearGradient>
			<path class="st44" d="M258.91,179.82c-2.21,1.81-4.59,3.19-7.11,4.11c-1.08-1.25-2.11-2.61-3.08-4.08
				c2.53-0.69,4.93-1.97,7.14-3.77C256.83,177.46,257.85,178.71,258.91,179.82z"/>
			<linearGradient id="SVGID_43_" gradientUnits="userSpaceOnUse" x1="299.2246" y1="167.3119" x2="257.0424" y2="194.7983">
				<stop  offset="0" style="stop-color:#2AA4CA"/>
				<stop  offset="0.0979" style="stop-color:#359DC5"/>
				<stop  offset="0.2702" style="stop-color:#5389B8"/>
				<stop  offset="0.4954" style="stop-color:#826AA3"/>
				<stop  offset="0.5513" style="stop-color:#8F619D"/>
				<stop  offset="0.7472" style="stop-color:#BE4188"/>
				<stop  offset="1" style="stop-color:#FF156A"/>
			</linearGradient>
			<path class="st45" d="M301.34,169.93L301.34,169.93l-2.82,4.37c-0.4-0.54-0.79-1.1-1.17-1.68l-0.01-0.01l-0.81-1.26l-2.6-4.04
				l-0.22-0.35l2.87-4.44l1.41,2.18l0.5,0.78L301.34,169.93z"/>
			<linearGradient id="SVGID_44_" gradientUnits="userSpaceOnUse" x1="296.6663" y1="167.0227" x2="325.692" y2="131.4663">
				<stop  offset="0" style="stop-color:#2AA4CA"/>
				<stop  offset="0.0979" style="stop-color:#359DC5"/>
				<stop  offset="0.2702" style="stop-color:#5389B8"/>
				<stop  offset="0.4954" style="stop-color:#826AA3"/>
				<stop  offset="0.5513" style="stop-color:#8F619D"/>
				<stop  offset="0.7472" style="stop-color:#BE4188"/>
				<stop  offset="1" style="stop-color:#FF156A"/>
			</linearGradient>
			<polygon class="st46" points="308.99,158.09 308.99,158.1 306.12,162.53 304.71,160.35 303.26,158.09 301.35,155.12 
				304.22,150.68 305.4,152.5 308.77,157.75 			"/>
			<linearGradient id="SVGID_45_" gradientUnits="userSpaceOnUse" x1="324.0598" y1="168.4673" x2="275.8047" y2="130.0083">
				<stop  offset="0" style="stop-color:#2AA4CA"/>
				<stop  offset="0.0979" style="stop-color:#359DC5"/>
				<stop  offset="0.2702" style="stop-color:#5389B8"/>
				<stop  offset="0.4954" style="stop-color:#826AA3"/>
				<stop  offset="0.5513" style="stop-color:#8F619D"/>
				<stop  offset="0.7472" style="stop-color:#BE4188"/>
				<stop  offset="1" style="stop-color:#FF156A"/>
			</linearGradient>
			<polygon class="st47" points="288.96,135.97 284.18,143.37 281.32,138.93 283.24,135.95 285.85,131.91 285.75,131.84 
				285.75,131.84 285.84,131.89 285.97,131.69 285.98,131.69 286.09,131.52 286.13,131.59 288.95,135.96 			"/>
		</g>
		<g>
			<path class="st48" d="M261.29,169.93L261.29,169.93l-0.02,0.04c-0.62,0.94-1.27,1.82-1.94,2.64c-0.38,0.47-0.78,0.91-1.18,1.34
				l-1.67-2.59v0l-2.87-4.44c0.32-0.42,0.64-0.87,0.95-1.34l0.75-1.16l1.21-1.87l1.91,2.95l0.96,1.48L261.29,169.93z"/>
			<polygon class="st48" points="268.93,158.08 266.06,162.52 264.15,159.56 263.19,158.08 261.28,155.12 264.15,150.68 
				266.06,153.64 266.06,153.64 			"/>
			<path class="st48" d="M319.74,128.11c-1.16,0.93-2.24,2.1-3.19,3.47l-0.04,0.06c0,0,0,0,0,0c0,0,0,0.01-0.01,0.01
				c0,0.01-0.01,0.01-0.01,0.02c-0.01,0.01-0.02,0.03-0.03,0.04c-0.18,0.26-0.36,0.54-0.54,0.84c-0.01,0.02-0.02,0.03-0.03,0.05
				c0,0.01-0.01,0.01-0.01,0.02c0,0.01-0.01,0.02-0.02,0.03l-2,3.09c-0.52-1.99-1.19-3.88-2-5.62c-0.01-0.03-0.03-0.06-0.04-0.09
				c0.07-0.11,0.13-0.22,0.2-0.33c0.02-0.04,0.05-0.08,0.07-0.11c0.09-0.14,0.19-0.29,0.26-0.4c0.04-0.06,0.08-0.13,0.13-0.19
				c0.01-0.01,0.01-0.02,0.02-0.03c0,0,0-0.01,0-0.01l0.27-0.4l0.04-0.04c1.4-1.95,2.99-3.56,4.74-4.82
				C318.37,125.1,319.1,126.57,319.74,128.11z"/>
			<path class="st48" d="M323.18,145.01l-1.2,1.86h0l-2.36,3.65l-2.87,4.44l-3.06,4.73c0.44-1.96,0.79-3.98,1.03-6.04
				c0.2-1.65,0.33-3.33,0.39-5.03l0.21-0.32l2.61-4.05l4.49-6.95c0.44,2.44,0.69,4.96,0.76,7.53
				C323.17,144.89,323.18,144.95,323.18,145.01z"/>
			<path class="st48" d="M310.75,168.86c-0.92,2.13-1.97,4.13-3.15,5.98l-0.01,0.02c-0.07,0.11-0.14,0.21-0.21,0.32
				c-0.2,0.31-0.4,0.61-0.61,0.9c-0.79-0.64-1.55-1.36-2.28-2.14l0.9-1.4l0.66-1.02l0.09-0.14l0.02-0.04l2.87-4.45
				C309.58,167.62,310.16,168.27,310.75,168.86z"/>
			<path class="st48" d="M323.8,170.76c-1.26,3.45-2.79,6.7-4.57,9.69v0c-0.26,0.01-0.52,0.02-0.78,0.02
				c-1.55,0-3.07-0.21-4.54-0.61c0.06-0.09,0.12-0.18,0.18-0.28c0.08-0.12,0.16-0.24,0.23-0.36l0.03-0.04
				c1.34-2.1,2.54-4.36,3.59-6.75c0.17,0.01,0.34,0.01,0.5,0.01C320.28,172.43,322.09,171.86,323.8,170.76z"/>
			<path class="st48" d="M242.89,128.11c-0.94,2.24-1.69,4.63-2.26,7.13c-0.1,0.45-0.2,0.9-0.29,1.36v0
				c-0.05,0.23-0.09,0.47-0.13,0.7l-0.25-0.39c-0.01-0.01-0.02-0.03-0.03-0.04c0,0,0-0.01-0.01-0.01c-0.01-0.01-0.02-0.03-0.03-0.05
				c0-0.01-0.01-0.01-0.01-0.02c-0.13-0.22-0.27-0.43-0.4-0.61l-0.05-0.07l-0.01-0.01v0c-0.01-0.01-0.02-0.03-0.03-0.04
				c-0.64-0.9-1.82-2.25-3.31-2.59c0.64-2.67,1.49-5.23,2.53-7.64C240.14,126.29,241.57,127.05,242.89,128.11z"/>
			<path class="st48" d="M253.46,157.81l-3.53-5.46l-2.41-3.73c-0.01-0.15-0.01-0.29-0.02-0.44c-0.01-0.35-0.02-0.69-0.02-1.04
				l0-0.34l0-1.13v-0.01l0-0.14v-0.05l0.01-0.23l0-0.03c0-0.06,0-0.11,0-0.17c0.02-0.9,0.07-1.8,0.15-2.68
				c0.2-2.29,0.58-4.51,1.13-6.62l2.68,4.15l1.1,1.71c-0.13,1.11-0.21,2.24-0.25,3.39l0,0.03l0,0.04l-0.01,0.46l0,0.17l0,1.05
				l0,0.31c0.02,1.22,0.07,2.44,0.17,3.64C252.65,153.14,252.98,155.52,253.46,157.81z"/>
			<path class="st48" d="M281.32,182.78c-2.73,1.93-5.64,3.03-8.6,3.21h0c-0.39-0.38-0.77-0.78-1.15-1.19
				c-0.66-0.71-1.3-1.47-1.92-2.26c-0.33-0.42-0.66-0.85-0.98-1.3c-0.02-0.03-0.04-0.06-0.07-0.09c-0.03-0.04-0.05-0.08-0.08-0.12
				c-0.13-0.18-0.25-0.36-0.38-0.54c1.2,0.46,2.41,0.7,3.62,0.7h0.07c0.82,0,1.65-0.11,2.48-0.32c0,0,0,0,0,0
				c1.1-0.29,2.19-0.76,3.26-1.4C278.77,180.76,280.02,181.86,281.32,182.78z"/>
			<path class="st48" d="M297.79,184.31l-0.1,0.16l-0.07,0.11l-0.12,0.18l-0.07,0.1h-0.14c-0.07,0.09-0.14,0.19-0.21,0.28
				c-0.62,0.81-1.27,1.59-1.92,2.34c-2.24,2.54-4.68,4.68-7.26,6.39h0c-2.25-0.29-4.45-0.92-6.58-1.86c3.06-1.36,5.96-3.38,8.61-6
				c0.29,0.02,0.59,0.03,0.88,0.03c0.65,0,1.29-0.04,1.93-0.13c1.31-0.17,2.61-0.53,3.88-1.05
				C297.01,184.68,297.4,184.5,297.79,184.31z"/>
			<path class="st48" d="M279.1,127.54l0.01,0.01l-2.56,3.97l-2.37-3.67l-0.5-0.77l-0.01-0.01l4.68-7.24
				c0.62,0.77,1.22,1.58,1.79,2.45l0.22,0.33v0l0.57,0.88l0.4,0.61L279.1,127.54z"/>
			<path class="st48" d="M251.88,168.86c-2.21,2.19-4.68,3.42-7.2,3.56c-0.72-1.63-1.36-3.32-1.94-5.06
				c0.49,0.17,0.97,0.26,1.44,0.26c1.88,0,3.97-1.42,5.81-3.94C250.54,165.47,251.17,167.2,251.88,168.86z"/>
			<path class="st48" d="M258.91,179.82c-2.21,1.81-4.59,3.19-7.11,4.11c-1.08-1.25-2.11-2.61-3.08-4.08
				c2.53-0.69,4.93-1.97,7.14-3.77C256.83,177.46,257.85,178.71,258.91,179.82z"/>
			<path class="st48" d="M301.34,169.93L301.34,169.93l-2.82,4.37c-0.4-0.54-0.79-1.1-1.17-1.68l-0.01-0.01l-0.81-1.26l-2.6-4.04
				l-0.22-0.35l2.87-4.44l1.41,2.18l0.5,0.78L301.34,169.93z"/>
			<polygon class="st48" points="308.99,158.09 308.99,158.1 306.12,162.53 304.71,160.35 303.26,158.09 301.35,155.12 
				304.22,150.68 305.4,152.5 308.77,157.75 			"/>
			<polygon class="st48" points="288.96,135.97 284.18,143.37 281.32,138.93 283.24,135.95 285.85,131.91 285.75,131.84 
				285.75,131.84 285.84,131.89 285.97,131.69 285.98,131.69 286.09,131.52 286.13,131.59 288.95,135.96 			"/>
		</g>
		<linearGradient id="SVGID_46_" gradientUnits="userSpaceOnUse" x1="320.0267" y1="173.5278" x2="271.7716" y2="135.0688">
			<stop  offset="0" style="stop-color:#2AA4CA"/>
			<stop  offset="0.0979" style="stop-color:#359DC5"/>
			<stop  offset="0.2702" style="stop-color:#5389B8"/>
			<stop  offset="0.4954" style="stop-color:#826AA3"/>
			<stop  offset="0.5513" style="stop-color:#8F619D"/>
			<stop  offset="0.7472" style="stop-color:#BE4188"/>
			<stop  offset="1" style="stop-color:#FF156A"/>
		</linearGradient>
		<path class="st49" d="M309.03,166.9l-2.87,4.44v0l-0.02,0.04l-0.09,0.14l-1.56,2.42c-0.4-0.43-0.79-0.87-1.18-1.34
			c-0.68-0.82-1.32-1.7-1.94-2.64l-0.02-0.03v0l-2.86-4.45l-0.5-0.78l-1.41-2.18l-2.87-4.44l-2.96-4.58l-0.01,0.01l-6.55-10.14
			l4.78-7.4l5.15,7.97h0.02l4.35,6.74l2.87,4.44l1.91,2.97l1.45,2.27l1.41,2.18v0l1.21,1.87v0l0.75,1.16
			C308.39,166.03,308.71,166.48,309.03,166.9z"/>
	</g>
</g>
<g>
	<g>
		<path class="st50" d="M125.42,256.94h-1.27v-2.97h-7.13v-1.48h7.13v-4.45h-4.58c-0.58,0-1.11,0.17-1.59,0.5
			c-0.48,0.33-0.87,0.78-1.15,1.34c-0.29,0.56-0.43,1.19-0.43,1.87v5.19h-1.28v-5.19c0-0.71,0.12-1.38,0.34-2.01
			c0.23-0.63,0.55-1.18,0.96-1.66c0.41-0.48,0.88-0.85,1.42-1.12c0.54-0.27,1.12-0.4,1.73-0.4h5.85V256.94z"/>
		<path class="st50" d="M147.32,246.55l-0.01,5.19c0,0.72-0.11,1.4-0.34,2.03s-0.55,1.18-0.96,1.66c-0.41,0.47-0.88,0.85-1.42,1.11
			c-0.54,0.27-1.12,0.4-1.73,0.4h-0.94c-0.61,0-1.19-0.13-1.73-0.4c-0.54-0.27-1.01-0.64-1.42-1.12s-0.73-1.03-0.96-1.66
			s-0.34-1.3-0.34-2.01v-5.19h1.27v5.19c0,0.68,0.14,1.3,0.43,1.86c0.28,0.56,0.67,1.01,1.15,1.34c0.48,0.34,1.02,0.5,1.59,0.5h0.94
			c0.59,0,1.12-0.17,1.6-0.5c0.48-0.34,0.86-0.78,1.15-1.34s0.43-1.18,0.43-1.86v-5.19H147.32z"/>
		<path class="st50" d="M164.2,256.94h-1.27v-8.91h-4.51v-1.48h10.3v1.48h-4.51V256.94z"/>
		<path class="st50" d="M181.39,256.94h-1.27v-10.39h1.27V256.94z M189.53,256.94h-1.27v-4.45h-6.23V251h6.23v-4.45h1.27V256.94z"/>
		<path class="st50" d="M211.11,256.94h-9.23v-10.39h9.23v1.48h-7.96v7.42h7.96V256.94z M210.02,252.49h-6.23V251h6.23V252.49z"/>
		<path class="st50" d="M224.16,256.94h-1.27v-10.39h0.64c0.62,0,1.29,0.14,2.02,0.42c0.73,0.28,1.46,0.67,2.19,1.17
			c0.73,0.5,1.42,1.11,2.07,1.8c0.65,0.7,1.21,1.47,1.68,2.32v-5.71h1.27v10.39h-1.27c0-0.91-0.16-1.78-0.48-2.62
			c-0.32-0.84-0.74-1.61-1.27-2.32s-1.11-1.34-1.75-1.88c-0.64-0.55-1.29-1-1.96-1.35s-1.28-0.58-1.86-0.68V256.94z"/>
		<path class="st50" d="M249.94,256.94h-1.27v-8.91h-4.51v-1.48h10.3v1.48h-4.51V256.94z"/>
		<path class="st50" d="M267.12,256.94h-1.27v-10.39h1.27V256.94z"/>
		<path class="st50" d="M288.81,256.94h-5.75c-0.62,0-1.18-0.13-1.68-0.4c-0.5-0.27-0.93-0.64-1.29-1.11
			c-0.36-0.47-0.64-1.03-0.84-1.66c-0.2-0.63-0.29-1.3-0.29-2.03c0-0.71,0.1-1.38,0.29-2.01c0.2-0.63,0.47-1.18,0.84-1.66
			c0.36-0.48,0.79-0.85,1.29-1.12c0.5-0.27,1.06-0.4,1.68-0.4h5.75v1.48h-5.75c-0.59,0-1.09,0.17-1.51,0.5
			c-0.42,0.33-0.75,0.78-0.98,1.34c-0.23,0.56-0.34,1.19-0.34,1.87s0.11,1.3,0.34,1.86c0.23,0.56,0.55,1.01,0.98,1.34
			c0.42,0.34,0.92,0.5,1.51,0.5h5.75V256.94z"/>
		<path class="st50" d="M319.98,256.94h-1.27v-8.91h-4.51v-1.48h10.3v1.48h-4.51V256.94z"/>
		<path class="st50" d="M345.52,256.94h-1.27v-2.97h-7.13v-1.48h7.13v-4.45h-4.58c-0.58,0-1.11,0.17-1.59,0.5
			c-0.48,0.33-0.87,0.78-1.15,1.34c-0.29,0.56-0.43,1.19-0.43,1.87v5.19h-1.28v-5.19c0-0.71,0.12-1.38,0.34-2.01
			c0.23-0.63,0.55-1.18,0.96-1.66c0.41-0.48,0.88-0.85,1.42-1.12c0.54-0.27,1.12-0.4,1.73-0.4h5.85V256.94z"/>
		<path class="st50" d="M366.39,256.94h-8.53v-10.39h1.27v8.91h7.25V256.94z"/>
		<path class="st50" d="M387.02,256.94h-9.23v-10.39h9.23v1.48h-7.96v7.42h7.96V256.94z M385.93,252.49h-6.23V251h6.23V252.49z"/>
		<path class="st50" d="M400.07,256.94h-1.27v-10.39h0.64c0.62,0,1.29,0.14,2.02,0.42c0.73,0.28,1.46,0.67,2.19,1.17
			c0.73,0.5,1.42,1.11,2.07,1.8c0.65,0.7,1.21,1.47,1.68,2.32v-5.71h1.27v10.39h-1.27c0-0.91-0.16-1.78-0.48-2.62
			c-0.32-0.84-0.74-1.61-1.27-2.32s-1.11-1.34-1.75-1.88c-0.64-0.55-1.29-1-1.96-1.35s-1.28-0.58-1.86-0.68V256.94z"/>
		<path class="st50" d="M425.85,256.94h-1.27v-8.91h-4.51v-1.48h10.3v1.48h-4.51V256.94z"/>
		<path class="st50" d="M451.62,253.97c0,0.54-0.11,1.04-0.34,1.49c-0.23,0.45-0.54,0.81-0.92,1.08c-0.38,0.27-0.81,0.4-1.29,0.4
			h-7.75v-1.48h7.75c0.36,0,0.66-0.15,0.9-0.44c0.25-0.29,0.37-0.64,0.37-1.05c0-0.41-0.12-0.75-0.37-1.05
			c-0.25-0.29-0.55-0.44-0.9-0.44h-5.2c-0.47,0-0.89-0.13-1.28-0.4c-0.39-0.27-0.7-0.63-0.92-1.08c-0.23-0.45-0.34-0.95-0.34-1.49
			c0-0.54,0.12-1.04,0.34-1.49c0.23-0.45,0.54-0.81,0.92-1.08c0.39-0.27,0.81-0.4,1.28-0.4h7.11v1.48h-7.11
			c-0.35,0-0.65,0.15-0.9,0.44c-0.25,0.29-0.38,0.64-0.38,1.05c0,0.41,0.13,0.76,0.38,1.05c0.25,0.29,0.55,0.44,0.9,0.44h5.2
			c0.48,0,0.9,0.13,1.29,0.4c0.38,0.27,0.69,0.63,0.92,1.08C451.5,252.93,451.62,253.43,451.62,253.97z"/>
	</g>
</g>
<path class="st50" d="M134.12,207.97l-15.71,29.88h-4.87l-15.71-29.88h4.87l13.28,25.27l13.28-25.27H134.12z"/>
<path class="st50" d="M173.68,239.21h-32.5v-31.42h32.5v4.49h-28.01v22.44h28.01V239.21z M169.86,225.75h-21.95v-4.49h21.95V225.75z
	"/>
<path class="st50" d="M201.93,239.21h-4.49v-26.93h-15.89v-4.49h36.27v4.49h-15.89V239.21z"/>
<path class="st50" d="M246.61,239.21h-4.49v-26.93h-15.89v-4.49h36.27v4.49h-15.89V239.21z"/>
<path class="st50" d="M360.1,239.2h-4.48v-31.38h4.48V239.2z"/>
<path class="st50" d="M374,239.2h-4.48v-31.38h2.24c2.18,0,4.55,0.42,7.11,1.26c2.56,0.84,5.12,2.02,7.69,3.54
	c2.57,1.52,5,3.34,7.29,5.45c2.29,2.11,4.25,4.45,5.9,7.02v-17.26h4.48v31.38h-4.48c0-2.75-0.56-5.39-1.68-7.91
	c-1.12-2.53-2.61-4.86-4.46-6.99c-1.85-2.14-3.91-4.04-6.16-5.69c-2.26-1.66-4.55-3.02-6.88-4.08s-4.51-1.74-6.55-2.04V239.2z"/>
<path class="st50" d="M452,239.2h-6.05l-16.01-16.14l-9.95,7.17v8.97h-4.48v-31.38h4.48v17.49l24.61-17.49h6.55l-17.8,12.78
	L452,239.2z"/>
<polygon class="st51" points="318.35,233.39 318.35,207.35 313.87,207.35 313.87,238.72 318.34,238.72 318.34,233.39 "/>
<rect x="322.26" y="234.26" class="st50" width="24.18" height="4.46"/>
<g>
	<g>
		<path class="st51" d="M303.49,238.38h-4.46v-8.92h-24.94V225h24.94v-13.39h-16.02c-2.02,0-3.88,0.5-5.58,1.49
			c-1.7,1-3.04,2.34-4.04,4.04c-1,1.7-1.5,3.57-1.5,5.62v15.62h-4.46v-15.62c0-2.14,0.4-4.16,1.2-6.05s1.92-3.55,3.35-5
			c1.43-1.44,3.09-2.57,4.97-3.37c1.89-0.8,3.9-1.2,6.05-1.2h20.48V238.38z"/>
	</g>
</g>
</svg>
