<?xml version="1.0" encoding="utf-8"?>
<!-- Generator: Adobe Illustrator 24.0.2, SVG Export Plug-In . SVG Version: 6.00 Build 0)  -->
<svg version="1.1" id="Layer_1" xmlns="http://www.w3.org/2000/svg" xmlns:xlink="http://www.w3.org/1999/xlink" x="0px" y="0px"
	 viewBox="0 0 550 370" style="enable-background:new 0 0 550 370;" xml:space="preserve">
<style type="text/css">
	.st0{fill:#00BF8C;}
	.st1{fill:#FF156A;}
	.st2{fill:#3AA5CB;}
	.st3{fill:url(#SVGID_1_);}
	.st4{fill:url(#SVGID_2_);}
	.st5{fill:url(#SVGID_3_);}
	.st6{fill:url(#SVGID_4_);}
	.st7{fill:url(#SVGID_5_);}
	.st8{fill:url(#SVGID_6_);}
	.st9{fill:url(#SVGID_7_);}
	.st10{fill:url(#SVGID_8_);}
	.st11{fill:url(#SVGID_9_);}
	.st12{fill:url(#SVGID_10_);}
	.st13{fill:url(#SVGID_11_);}
	.st14{fill:url(#SVGID_12_);}
	.st15{fill:url(#SVGID_13_);}
	.st16{fill:url(#SVGID_14_);}
	.st17{fill:url(#SVGID_15_);}
	.st18{fill:url(#SVGID_16_);}
	.st19{fill:url(#SVGID_17_);}
	.st20{fill:url(#SVGID_18_);}
	.st21{fill:url(#SVGID_19_);}
	.st22{fill:url(#SVGID_20_);}
	.st23{fill:url(#SVGID_21_);}
	.st24{fill:url(#SVGID_22_);}
	.st25{fill:url(#SVGID_23_);}
	.st26{fill:url(#SVGID_24_);}
	.st27{fill:url(#SVGID_25_);}
	.st28{fill:url(#SVGID_26_);}
	.st29{fill:url(#SVGID_27_);}
	.st30{fill:url(#SVGID_28_);}
	.st31{fill:url(#SVGID_29_);}
	.st32{fill:url(#SVGID_30_);}
	.st33{fill:url(#SVGID_31_);}
	.st34{fill:url(#SVGID_32_);}
	.st35{fill:url(#SVGID_33_);}
	.st36{fill:url(#SVGID_34_);}
	.st37{fill:url(#SVGID_35_);}
	.st38{fill:url(#SVGID_36_);}
	.st39{fill:url(#SVGID_37_);}
	.st40{fill:url(#SVGID_38_);}
	.st41{fill:url(#SVGID_39_);}
	.st42{fill:url(#SVGID_40_);}
	.st43{fill:url(#SVGID_41_);}
	.st44{fill:url(#SVGID_42_);}
	.st45{fill:url(#SVGID_43_);}
	.st46{fill:url(#SVGID_44_);}
	.st47{fill:url(#SVGID_45_);}
	.st48{fill:#CCCCCC;}
	.st49{fill:url(#SVGID_46_);}
	.st50{fill:#D9E021;}
	.st51{fill:#29ABE2;}
</style>
<g>
	<g>
		
			<ellipse transform="matrix(0.5157 -0.8568 0.8568 0.5157 14.4156 266.7322)" class="st0" cx="243.13" cy="120.62" rx="6.94" ry="6.94"/>
		
			<ellipse transform="matrix(0.6689 -0.7433 0.7433 0.6689 15.3257 275.6399)" class="st1" cx="317.09" cy="120.62" rx="6.94" ry="6.94"/>
	</g>
	<circle class="st2" cx="280.11" cy="108.95" r="8.6"/>
	<g>
		<g>
			<linearGradient id="SVGID_1_" gradientUnits="userSpaceOnUse" x1="278.4571" y1="174.186" x2="258.0347" y2="158.1713">
				<stop  offset="0" style="stop-color:#2AA4CA"/>
				<stop  offset="1" style="stop-color:#00BF8C"/>
			</linearGradient>
			<path class="st3" d="M252.74,154.2l-0.17-0.26l0.15-0.1C252.74,153.96,252.74,154.08,252.74,154.2z"/>
			<linearGradient id="SVGID_2_" gradientUnits="userSpaceOnUse" x1="277.4372" y1="175.4872" x2="257.0146" y2="159.4723">
				<stop  offset="0" style="stop-color:#2AA4CA"/>
				<stop  offset="1" style="stop-color:#00BF8C"/>
			</linearGradient>
			<path class="st4" d="M277.08,179.19c-0.87,0.52-1.76,0.91-2.64,1.14c0,0,0,0,0,0c-0.67,0.17-1.34,0.26-2.01,0.26h-0.06
				c-0.98-0.01-1.96-0.2-2.93-0.57c-0.07-0.1-0.14-0.2-0.21-0.3l-0.01-0.02l-0.01-0.02l-0.01-0.01l-0.02-0.03h0l-0.72-1.12
				l-0.03-0.05l-1.76-2.73l-0.35-0.55l-0.09-0.14l-0.04-0.06l-2.29-3.54v0l-1.55-2.4l-0.78-1.2l-1.54-2.39v0l-2.32-3.59l0,0
				l-0.15-0.23c-0.38-1.85-0.65-3.78-0.8-5.75c-0.08-0.97-0.12-1.95-0.14-2.95l0-0.25l0-0.85l0-0.14l0.01-0.37l0-0.04l0-0.02
				c0.03-0.93,0.09-1.85,0.2-2.75l1.22,1.89l2.12,3.28l1.41,2.18l2.32,3.59l1.55,2.4l0.78,1.2l1.54,2.39l2.32,3.6l1.72,2.67
				l2.12,3.28l0.72,1.11c0,0.01,0.01,0.01,0.01,0.01c0.16,0.23,0.31,0.44,0.46,0.66l0.05,0.08c0.34,0.46,0.68,0.91,1.03,1.33
				C276.48,178.53,276.78,178.86,277.08,179.19z"/>
			<linearGradient id="SVGID_3_" gradientUnits="userSpaceOnUse" x1="278.4571" y1="174.186" x2="258.0347" y2="158.1713">
				<stop  offset="0" style="stop-color:#2AA4CA"/>
				<stop  offset="1" style="stop-color:#00BF8C"/>
			</linearGradient>
			<path class="st5" d="M252.74,154.2l-0.17-0.26l0.15-0.1C252.74,153.96,252.74,154.08,252.74,154.2z"/>
			<linearGradient id="SVGID_4_" gradientUnits="userSpaceOnUse" x1="272.4119" y1="181.8956" x2="251.9893" y2="165.8807">
				<stop  offset="0" style="stop-color:#2AA4CA"/>
				<stop  offset="1" style="stop-color:#00BF8C"/>
			</linearGradient>
			<path class="st6" d="M269.18,179.64c-0.25-0.37-0.49-0.75-0.72-1.12L269.18,179.64z"/>
			<linearGradient id="SVGID_5_" gradientUnits="userSpaceOnUse" x1="272.2747" y1="182.0712" x2="251.8502" y2="166.0549">
				<stop  offset="0" style="stop-color:#2AA4CA"/>
				<stop  offset="1" style="stop-color:#00BF8C"/>
			</linearGradient>
			<path class="st7" d="M269.2,179.67c-0.01-0.01-0.01-0.02-0.02-0.03h0L269.2,179.67z"/>
		</g>
		<linearGradient id="SVGID_6_" gradientUnits="userSpaceOnUse" x1="296.3884" y1="132.3385" x2="266.633" y2="159.8898">
			<stop  offset="0" style="stop-color:#2AA4CA"/>
			<stop  offset="1" style="stop-color:#00BF8C"/>
		</linearGradient>
		<path class="st8" d="M309.46,134.03c-1.42,1.02-2.71,2.32-3.84,3.9l-0.03,0.03l-0.22,0.33c0,0,0,0,0,0.01
			c-0.01,0-0.01,0.01-0.02,0.02c-0.03,0.05-0.07,0.1-0.1,0.15c-0.06,0.09-0.14,0.21-0.21,0.32c-0.02,0.03-0.04,0.06-0.06,0.09
			c-0.06,0.1-0.12,0.19-0.17,0.26c-0.48-1.01-1.01-1.96-1.6-2.83c-2.35-3.51-5.3-5.44-8.31-5.44c-3.05,0-6.04,1.98-8.4,5.56
			l-0.2,0.31l-0.01,0.01l-0.4,0.62l-1.92,2.97l-0.09,0.14h0l-0.11,0.16l-0.07-0.05l0,0l0.09,0.06l-2.11,3.27l-1.56,2.41l-2.32,3.59
			l-5.31,8.22l-0.01-0.01l-2.4,3.71l-2.32-3.59l0,0l-1.55-2.4l3.53-5.46h0.01l4.17-6.46l0.01-0.01l2.28-3.54l0.04-0.06l2.08-3.21
			l-0.01-0.01l1.79-2.78l0.32-0.5l0.46-0.71v0l0.17-0.27c0.46-0.7,0.95-1.37,1.45-1.99c3.42-4.22,7.75-6.52,12.39-6.52
			c5.25,0,10.12,2.96,13.72,8.32C308.91,133.12,309.2,133.57,309.46,134.03z"/>
		<linearGradient id="SVGID_7_" gradientUnits="userSpaceOnUse" x1="293.7434" y1="164.6753" x2="307.1884" y2="179.0019">
			<stop  offset="0" style="stop-color:#2AA4CA"/>
			<stop  offset="1" style="stop-color:#00BF8C"/>
		</linearGradient>
		<path class="st9" d="M314.03,151.78v0.02l-0.01,1.11V153c0,0.04,0,0.08,0,0.13c-0.09,5.71-1.01,11.24-2.67,16.25
			c-0.47,1.41-0.99,2.78-1.57,4.1c-0.85,1.94-1.82,3.77-2.91,5.47l-0.02,0.03c-0.06,0.1-0.13,0.2-0.19,0.29
			c-0.05,0.08-0.1,0.15-0.15,0.22c-0.79,1.19-1.62,2.29-2.5,3.3c-1.7,1.98-3.57,3.63-5.57,4.92c-3.35,2.17-6.93,3.27-10.65,3.27
			c-0.79,0-1.58-0.05-2.35-0.15c2.09-1.39,4.06-3.12,5.88-5.18c0.53-0.6,1.05-1.23,1.56-1.89c0.06-0.07,0.12-0.15,0.17-0.22h0.11
			l0.05-0.08l0.09-0.15l0.06-0.09l0.08-0.13l0,0c1.68-0.85,3.3-2.07,4.8-3.63c0.86-0.9,1.69-1.91,2.47-3.03
			c0.17-0.24,0.33-0.48,0.49-0.73c0.06-0.09,0.11-0.17,0.17-0.26l0.01-0.01c0.96-1.5,1.81-3.12,2.55-4.85
			c0.58-1.34,1.09-2.74,1.53-4.19c0.32-1.05,0.6-2.13,0.85-3.23v0l2.48-3.83l2.33-3.6l1.91-2.95l0.97-1.51c0,0.06,0,0.12,0,0.17
			v0.11l0,0.06l0,0.03C314.02,151.69,314.03,151.74,314.03,151.78z"/>
		<linearGradient id="SVGID_8_" gradientUnits="userSpaceOnUse" x1="257.6664" y1="170.8026" x2="259.9928" y2="170.8026">
			<stop  offset="0" style="stop-color:#FFE63F"/>
			<stop  offset="1" style="stop-color:#00BF8C"/>
		</linearGradient>
		<polygon class="st10" points="259.99,172.6 259.99,172.6 257.67,169 		"/>
		<g>
			<linearGradient id="SVGID_9_" gradientUnits="userSpaceOnUse" x1="290.4807" y1="180.094" x2="290.9931" y2="180.094">
				<stop  offset="0" style="stop-color:#FFE63F"/>
				<stop  offset="1" style="stop-color:#00BF8C"/>
			</linearGradient>
			<path class="st11" d="M290.99,179.72l-0.19,0.29l-0.3,0.46l-0.03-0.02c0.1-0.14,0.2-0.29,0.31-0.44
				C290.86,179.92,290.92,179.82,290.99,179.72z"/>
			<linearGradient id="SVGID_10_" gradientUnits="userSpaceOnUse" x1="291.2401" y1="179.845" x2="291.2935" y2="179.845">
				<stop  offset="0" style="stop-color:#FFE63F"/>
				<stop  offset="1" style="stop-color:#00BF8C"/>
			</linearGradient>
			<polygon class="st12" points="291.29,179.86 291.24,179.83 291.24,179.83 			"/>
			<linearGradient id="SVGID_11_" gradientUnits="userSpaceOnUse" x1="290.4807" y1="180.094" x2="290.9931" y2="180.094">
				<stop  offset="0" style="stop-color:#FFE63F"/>
				<stop  offset="1" style="stop-color:#00BF8C"/>
			</linearGradient>
			<path class="st13" d="M290.99,179.72l-0.19,0.29l-0.3,0.46l-0.03-0.02c0.1-0.14,0.2-0.29,0.31-0.44
				C290.86,179.92,290.92,179.82,290.99,179.72z"/>
			<linearGradient id="SVGID_12_" gradientUnits="userSpaceOnUse" x1="313.6668" y1="144.3453" x2="314.0257" y2="144.3453">
				<stop  offset="0" style="stop-color:#FFE63F"/>
				<stop  offset="1" style="stop-color:#00BF8C"/>
			</linearGradient>
			<path class="st14" d="M314.03,144.07l-0.36,0.55c0.11-0.18,0.22-0.35,0.32-0.5L314.03,144.07z"/>
			<linearGradient id="SVGID_13_" gradientUnits="userSpaceOnUse" x1="313.6668" y1="144.3453" x2="314.0257" y2="144.3453">
				<stop  offset="0" style="stop-color:#FFE63F"/>
				<stop  offset="1" style="stop-color:#00BF8C"/>
			</linearGradient>
			<path class="st15" d="M314.03,144.07l-0.36,0.55c0.11-0.18,0.22-0.35,0.32-0.5L314.03,144.07z"/>
		</g>
		<linearGradient id="SVGID_14_" gradientUnits="userSpaceOnUse" x1="304.7994" y1="139.1815" x2="304.854" y2="139.1815">
			<stop  offset="0" style="stop-color:#FFE63F"/>
			<stop  offset="1" style="stop-color:#00BF8C"/>
		</linearGradient>
		<path class="st16" d="M304.85,139.22l-0.05-0.03c0.01-0.01,0.01-0.02,0.02-0.04C304.83,139.17,304.84,139.19,304.85,139.22z"/>
		<linearGradient id="SVGID_15_" gradientUnits="userSpaceOnUse" x1="304.8176" y1="139.0137" x2="304.9854" y2="139.0137">
			<stop  offset="0" style="stop-color:#FFE63F"/>
			<stop  offset="1" style="stop-color:#00BF8C"/>
		</linearGradient>
		<path class="st17" d="M304.99,138.88c-0.06,0.09-0.11,0.18-0.16,0.27c0,0,0-0.01,0-0.01
			C304.86,139.07,304.92,138.98,304.99,138.88z"/>
		<linearGradient id="SVGID_16_" gradientUnits="userSpaceOnUse" x1="305.3573" y1="138.3037" x2="305.3742" y2="138.3037">
			<stop  offset="0" style="stop-color:#FFE63F"/>
			<stop  offset="1" style="stop-color:#00BF8C"/>
		</linearGradient>
		<path class="st18" d="M305.37,138.29c-0.01,0.01-0.01,0.02-0.02,0.02C305.36,138.3,305.37,138.3,305.37,138.29z"/>
		<linearGradient id="SVGID_17_" gradientUnits="userSpaceOnUse" x1="308.1454" y1="140.8499" x2="308.5836" y2="140.8499">
			<stop  offset="0" style="stop-color:#FFE63F"/>
			<stop  offset="1" style="stop-color:#00BF8C"/>
		</linearGradient>
		<path class="st19" d="M308.58,140.51l-0.44,0.68C308.29,140.95,308.44,140.73,308.58,140.51z"/>
		<linearGradient id="SVGID_18_" gradientUnits="userSpaceOnUse" x1="298.8787" y1="173.7227" x2="300.1453" y2="173.7227">
			<stop  offset="0" style="stop-color:#FFE63F"/>
			<stop  offset="1" style="stop-color:#00BF8C"/>
		</linearGradient>
		<polygon class="st20" points="300.15,172.74 299.61,173.57 298.88,174.7 298.88,174.7 		"/>
		<linearGradient id="SVGID_19_" gradientUnits="userSpaceOnUse" x1="300.235" y1="170.8026" x2="302.5614" y2="170.8026">
			<stop  offset="0" style="stop-color:#FFE63F"/>
			<stop  offset="1" style="stop-color:#00BF8C"/>
		</linearGradient>
		<polygon class="st21" points="302.56,169 300.23,172.6 300.23,172.6 		"/>
		<linearGradient id="SVGID_20_" gradientUnits="userSpaceOnUse" x1="313.6668" y1="144.3453" x2="314.0257" y2="144.3453">
			<stop  offset="0" style="stop-color:#FFE63F"/>
			<stop  offset="1" style="stop-color:#00BF8C"/>
		</linearGradient>
		<path class="st22" d="M314.03,144.07l-0.36,0.55c0.11-0.18,0.22-0.35,0.32-0.5L314.03,144.07z"/>
		<linearGradient id="SVGID_21_" gradientUnits="userSpaceOnUse" x1="298.8787" y1="173.7227" x2="300.1453" y2="173.7227">
			<stop  offset="0" style="stop-color:#FFE63F"/>
			<stop  offset="1" style="stop-color:#00BF8C"/>
		</linearGradient>
		<polygon class="st23" points="300.15,172.74 299.61,173.57 298.88,174.7 298.88,174.7 		"/>
		<linearGradient id="SVGID_22_" gradientUnits="userSpaceOnUse" x1="300.235" y1="170.8026" x2="302.5614" y2="170.8026">
			<stop  offset="0" style="stop-color:#FFE63F"/>
			<stop  offset="1" style="stop-color:#00BF8C"/>
		</linearGradient>
		<polygon class="st24" points="302.56,169 300.23,172.6 300.23,172.6 		"/>
		<linearGradient id="SVGID_23_" gradientUnits="userSpaceOnUse" x1="304.7994" y1="139.1815" x2="304.854" y2="139.1815">
			<stop  offset="0" style="stop-color:#FFE63F"/>
			<stop  offset="1" style="stop-color:#00BF8C"/>
		</linearGradient>
		<path class="st25" d="M304.85,139.22l-0.05-0.03c0.01-0.01,0.01-0.02,0.02-0.04C304.83,139.17,304.84,139.19,304.85,139.22z"/>
		<linearGradient id="SVGID_24_" gradientUnits="userSpaceOnUse" x1="308.1454" y1="140.8499" x2="308.5836" y2="140.8499">
			<stop  offset="0" style="stop-color:#FFE63F"/>
			<stop  offset="1" style="stop-color:#00BF8C"/>
		</linearGradient>
		<path class="st26" d="M308.58,140.51l-0.44,0.68C308.29,140.95,308.44,140.73,308.58,140.51z"/>
		<linearGradient id="SVGID_25_" gradientUnits="userSpaceOnUse" x1="308.1454" y1="140.8499" x2="308.5836" y2="140.8499">
			<stop  offset="0" style="stop-color:#FFE63F"/>
			<stop  offset="1" style="stop-color:#00BF8C"/>
		</linearGradient>
		<path class="st27" d="M308.58,140.51l-0.44,0.68C308.29,140.95,308.44,140.73,308.58,140.51z"/>
		<linearGradient id="SVGID_26_" gradientUnits="userSpaceOnUse" x1="300.4124" y1="175.5215" x2="323.9206" y2="146.7241">
			<stop  offset="0" style="stop-color:#2AA4CA"/>
			<stop  offset="0.0979" style="stop-color:#359DC5"/>
			<stop  offset="0.2702" style="stop-color:#5389B8"/>
			<stop  offset="0.4954" style="stop-color:#826AA3"/>
			<stop  offset="0.5513" style="stop-color:#8F619D"/>
			<stop  offset="0.7472" style="stop-color:#BE4188"/>
			<stop  offset="1" style="stop-color:#FF156A"/>
		</linearGradient>
		<path class="st28" d="M329.3,153.23c-0.18,6.96-2.09,13.5-5.39,18.43c-3.45,5.15-8.08,8.08-13.09,8.31
			c1.44-2.42,2.68-5.05,3.7-7.84c1.44-0.92,2.79-2.3,3.98-4.08c2.63-3.92,4.15-9.24,4.29-14.99l0-0.03c0.02-0.49,0-1.4-0.01-1.75
			c-0.28-5.63-3.06-9.41-5.49-9.41c-0.19,0-0.38,0.02-0.56,0.07c-1.21,0.27-2.16,1.36-2.68,2.09c-0.01,0.01-0.02,0.02-0.02,0.03v0
			l-0.01,0.01l-0.04,0.05c-0.1,0.15-0.21,0.32-0.32,0.5c0,0.01-0.01,0.01-0.01,0.01c-0.01,0.02-0.02,0.03-0.03,0.04
			c0,0,0,0.01-0.01,0.01c-0.01,0.01-0.01,0.02-0.02,0.03l-0.2,0.32l-3.63,5.63l-2.12,3.28l-0.17,0.26l-1.95,3.02l-2.86,4.42
			l-0.15,0.23l-0.18-0.28l-2.73-4.25l-0.95-1.48l1.41-2.18l2.12-3.28l1.22-1.89v0l0.89-1.38l2.17-3.36v0l1.62-2.5
			c0.01-0.01,0.01-0.02,0.02-0.02c0-0.01,0.01-0.01,0.01-0.02c0.01-0.01,0.02-0.03,0.02-0.04l0.44-0.68
			c0.01-0.01,0.02-0.02,0.02-0.04c0-0.01,0.01-0.01,0.01-0.02c0,0,0-0.01,0.01-0.01c0,0,0,0,0,0l0.03-0.05
			c0.77-1.11,1.64-2.06,2.58-2.81c1.07-0.86,2.23-1.48,3.45-1.84c0.84-0.25,1.72-0.38,2.61-0.38c6.4,0,11.55,6.72,11.98,15.63
			l0,0.06C329.29,151.19,329.32,152.43,329.3,153.23z"/>
		<linearGradient id="SVGID_27_" gradientUnits="userSpaceOnUse" x1="234.2178" y1="142.1055" x2="250.9673" y2="171.1968">
			<stop  offset="0" style="stop-color:#FFE63F"/>
			<stop  offset="1" style="stop-color:#00BF8C"/>
		</linearGradient>
		<path class="st29" d="M261.35,174.7c-0.59,0.63-1.21,1.21-1.85,1.73c-1.79,1.46-3.73,2.5-5.78,3.06c-1.2,0.33-2.43,0.5-3.68,0.5
			c-0.21,0-0.42-0.01-0.63-0.02c-5.01-0.22-9.63-3.15-13.09-8.31c-3.3-4.93-5.22-11.47-5.39-18.43c-0.03-0.8,0.01-2.04,0.01-2.18
			l0-0.06c0.43-8.91,5.58-15.63,11.98-15.63c0.89,0,1.77,0.13,2.61,0.38c-0.84,1.95-1.53,4.02-2.05,6.19
			c-0.18-0.04-0.37-0.07-0.56-0.07c-2.43,0-5.21,3.78-5.49,9.41c-0.01,0.35-0.03,1.26-0.01,1.75l0,0.03
			c0.14,5.75,1.67,11.07,4.29,14.99c1.2,1.78,2.55,3.16,3.98,4.08c1.38,0.89,2.85,1.36,4.33,1.36c0.14,0,0.27,0,0.41-0.01
			c2.04-0.12,4.04-1.12,5.83-2.89c0.48-0.47,0.94-1,1.39-1.58l2.33,3.6L261.35,174.7z"/>
		<linearGradient id="SVGID_28_" gradientUnits="userSpaceOnUse" x1="240.9992" y1="135.6536" x2="273.0291" y2="155.4886">
			<stop  offset="0" style="stop-color:#2AA4CA"/>
			<stop  offset="0.0979" style="stop-color:#359DC5"/>
			<stop  offset="0.2702" style="stop-color:#5389B8"/>
			<stop  offset="0.4954" style="stop-color:#826AA3"/>
			<stop  offset="0.5513" style="stop-color:#8F619D"/>
			<stop  offset="0.7472" style="stop-color:#BE4188"/>
			<stop  offset="1" style="stop-color:#FF156A"/>
		</linearGradient>
		<path class="st30" d="M265.32,124.36c-5.25,0-10.12,2.96-13.72,8.32c-0.29,0.44-0.57,0.88-0.84,1.34
			c-0.66,1.12-1.25,2.31-1.77,3.56c-0.76,1.81-1.37,3.75-1.83,5.77c-0.08,0.37-0.16,0.73-0.23,1.1v0c-0.04,0.19-0.07,0.38-0.11,0.57
			c-0.35,1.97-0.56,4.02-0.61,6.1c0,0.04,0,0.09,0,0.14c0,0.06,0,0.12,0,0.18v0.11l0,0.06l0,0.03c0,0.05,0,0.09,0,0.14v0.02
			l0.01,1.11V153c0,0.04,0,0.08,0,0.13c0.09,5.71,1.01,11.24,2.67,16.25c0.39,0.14,0.78,0.21,1.16,0.21c1.52,0,3.22-1.15,4.71-3.19
			c-0.32-1.05-0.6-2.13-0.85-3.23v0c-0.36-1.59-0.64-3.22-0.83-4.89c-0.16-1.34-0.27-2.7-0.32-4.07l-0.17-0.26l0.15-0.1
			c-0.01-0.28-0.02-0.56-0.02-0.84l0-0.27l0-0.92v-0.01l0-0.11v-0.04l0.01-0.19l0-0.02c0-0.05,0-0.09,0-0.14
			c0.02-0.73,0.06-1.46,0.12-2.17c0.16-1.86,0.47-3.66,0.92-5.36c0.42-1.62,0.96-3.14,1.62-4.56c0.01-0.02,0.02-0.04,0.03-0.07
			c-0.04-0.06,0-0.01,0-0.01c0.47-1.01,1.01-1.96,1.6-2.84c2.35-3.51,5.3-5.44,8.31-5.44c3.05,0,6.04,1.98,8.4,5.56l0.2,0.31
			l3.79-5.86C274.29,126.66,269.96,124.36,265.32,124.36z"/>
		<linearGradient id="SVGID_29_" gradientUnits="userSpaceOnUse" x1="294.4564" y1="169.086" x2="260.2928" y2="191.3474">
			<stop  offset="0" style="stop-color:#2AA4CA"/>
			<stop  offset="0.0979" style="stop-color:#359DC5"/>
			<stop  offset="0.2702" style="stop-color:#5389B8"/>
			<stop  offset="0.4954" style="stop-color:#826AA3"/>
			<stop  offset="0.5513" style="stop-color:#8F619D"/>
			<stop  offset="0.7472" style="stop-color:#BE4188"/>
			<stop  offset="1" style="stop-color:#FF156A"/>
		</linearGradient>
		<path class="st31" d="M294.05,174.99l-0.04,0.06l-0.09,0.14l-0.35,0.55l-1.76,2.73l-0.03,0.05l-0.72,1.12h0l-0.02,0.03l-0.01,0.01
			l-0.01,0.01l-0.02,0.03c-0.07,0.1-0.14,0.2-0.21,0.3c-0.1,0.15-0.2,0.29-0.31,0.44c-0.02,0.03-0.05,0.06-0.07,0.09
			c-0.02,0.03-0.04,0.05-0.05,0.08c-0.26,0.36-0.52,0.71-0.79,1.05c-0.5,0.64-1.02,1.25-1.55,1.83c-0.31,0.33-0.62,0.65-0.93,0.96
			c-2.15,2.13-4.5,3.76-6.97,4.86c-1.72,0.77-3.5,1.27-5.33,1.51c-0.78,0.1-1.57,0.15-2.36,0.15c-3.72,0-7.3-1.1-10.65-3.27
			c-2-1.3-3.87-2.95-5.57-4.92c2.04-0.74,3.97-1.86,5.76-3.33c1.51,1.57,3.12,2.79,4.8,3.63h0v0l0,0v0c0.31,0.16,0.63,0.3,0.95,0.43
			c1.03,0.42,2.08,0.71,3.14,0.85c0.52,0.07,1.04,0.11,1.57,0.11c0.24,0,0.47-0.01,0.71-0.02h0c2.4-0.15,4.76-1.04,6.97-2.6
			c1.05-0.74,2.06-1.64,3.03-2.67c0.3-0.33,0.6-0.66,0.89-1.02c0.35-0.42,0.69-0.86,1.03-1.33l0.05-0.08
			c0.15-0.21,0.3-0.43,0.46-0.66c0-0.01,0.01-0.01,0.01-0.01l0.72-1.11l2.12-3.28l1.72-2.67l0.18,0.28l2.1,3.27l0.66,1.02l0.01,0.01
			C293.41,174.1,293.72,174.55,294.05,174.99z"/>
		<g>
			<linearGradient id="SVGID_30_" gradientUnits="userSpaceOnUse" x1="242.0069" y1="137.6209" x2="258.7564" y2="166.7122">
				<stop  offset="0" style="stop-color:#FFE63F"/>
				<stop  offset="1" style="stop-color:#00BF8C"/>
			</linearGradient>
			<path class="st32" d="M263.89,171.45L263.89,171.45l-0.02,0.03c-0.5,0.76-1.02,1.47-1.57,2.14c-0.31,0.38-0.63,0.74-0.95,1.08
				l-1.36-2.1v0l-2.33-3.6c0.26-0.34,0.52-0.7,0.77-1.08l0.61-0.94l0.98-1.51l1.54,2.39l0.78,1.2L263.89,171.45z"/>
			<linearGradient id="SVGID_31_" gradientUnits="userSpaceOnUse" x1="296.9328" y1="132.9264" x2="267.1774" y2="160.4777">
				<stop  offset="0" style="stop-color:#2AA4CA"/>
				<stop  offset="1" style="stop-color:#00BF8C"/>
			</linearGradient>
			<polygon class="st33" points="270.08,161.86 267.76,165.45 266.21,163.06 265.43,161.86 263.89,159.46 266.21,155.87 
				267.76,158.26 267.76,158.26 			"/>
			<linearGradient id="SVGID_32_" gradientUnits="userSpaceOnUse" x1="304.9655" y1="141.6018" x2="275.2101" y2="169.1531">
				<stop  offset="0" style="stop-color:#2AA4CA"/>
				<stop  offset="1" style="stop-color:#00BF8C"/>
			</linearGradient>
			<path class="st34" d="M311.24,137.59c-0.94,0.76-1.81,1.7-2.58,2.81l-0.03,0.05c0,0,0,0,0,0c0,0,0,0.01-0.01,0.01
				c0,0.01-0.01,0.01-0.01,0.02c-0.01,0.01-0.02,0.02-0.02,0.04c-0.15,0.21-0.29,0.44-0.44,0.68c-0.01,0.01-0.02,0.03-0.02,0.04
				c0,0.01-0.01,0.01-0.01,0.02c0,0.01-0.01,0.02-0.02,0.02l-1.62,2.5c-0.42-1.61-0.96-3.14-1.62-4.55
				c-0.01-0.02-0.02-0.05-0.03-0.07c0.05-0.09,0.11-0.18,0.16-0.27c0.02-0.03,0.04-0.06,0.06-0.09c0.08-0.12,0.15-0.23,0.21-0.32
				c0.03-0.05,0.07-0.1,0.1-0.15c0.01-0.01,0.01-0.02,0.02-0.02c0,0,0-0.01,0-0.01l0.22-0.33l0.03-0.03
				c1.13-1.58,2.42-2.88,3.84-3.9C310.12,135.15,310.71,136.34,311.24,137.59z"/>
			<linearGradient id="SVGID_33_" gradientUnits="userSpaceOnUse" x1="307.5937" y1="151.6772" x2="321.0388" y2="166.0039">
				<stop  offset="0" style="stop-color:#2AA4CA"/>
				<stop  offset="1" style="stop-color:#00BF8C"/>
			</linearGradient>
			<path class="st35" d="M314.02,151.27l-0.97,1.51h0l-1.91,2.95l-2.33,3.6l-2.48,3.83c0.36-1.59,0.64-3.22,0.83-4.89
				c0.16-1.34,0.27-2.7,0.32-4.07l0.17-0.26l2.12-3.28l3.63-5.63c0.35,1.97,0.56,4.02,0.61,6.1
				C314.02,151.18,314.02,151.22,314.02,151.27z"/>
			<linearGradient id="SVGID_34_" gradientUnits="userSpaceOnUse" x1="308.4557" y1="178.1458" x2="269.3734" y2="146.9975">
				<stop  offset="0" style="stop-color:#2AA4CA"/>
				<stop  offset="0.0979" style="stop-color:#359DC5"/>
				<stop  offset="0.2702" style="stop-color:#5389B8"/>
				<stop  offset="0.4954" style="stop-color:#826AA3"/>
				<stop  offset="0.5513" style="stop-color:#8F619D"/>
				<stop  offset="0.7472" style="stop-color:#BE4188"/>
				<stop  offset="1" style="stop-color:#FF156A"/>
			</linearGradient>
			<path class="st36" d="M303.95,170.59c-0.74,1.73-1.6,3.35-2.55,4.85l-0.01,0.01c-0.06,0.09-0.11,0.17-0.17,0.26
				c-0.16,0.25-0.33,0.49-0.49,0.73c-0.64-0.52-1.25-1.1-1.85-1.73l0.73-1.13l0.53-0.83l0.07-0.11l0.02-0.03l2.33-3.6
				C303.01,169.58,303.47,170.11,303.95,170.59z"/>
			<linearGradient id="SVGID_35_" gradientUnits="userSpaceOnUse" x1="306.9338" y1="180.8451" x2="330.442" y2="152.0477">
				<stop  offset="0" style="stop-color:#2AA4CA"/>
				<stop  offset="0.0979" style="stop-color:#359DC5"/>
				<stop  offset="0.2702" style="stop-color:#5389B8"/>
				<stop  offset="0.4954" style="stop-color:#826AA3"/>
				<stop  offset="0.5513" style="stop-color:#8F619D"/>
				<stop  offset="0.7472" style="stop-color:#BE4188"/>
				<stop  offset="1" style="stop-color:#FF156A"/>
			</linearGradient>
			<path class="st37" d="M314.52,172.13c-1.02,2.79-2.26,5.43-3.7,7.84v0c-0.21,0.01-0.42,0.01-0.63,0.01
				c-1.25,0-2.48-0.17-3.68-0.5c0.05-0.07,0.1-0.15,0.15-0.22c0.06-0.1,0.13-0.19,0.19-0.29l0.02-0.03c1.09-1.7,2.06-3.53,2.91-5.47
				c0.14,0.01,0.27,0.01,0.41,0.01C311.67,173.48,313.14,173.02,314.52,172.13z"/>
			<linearGradient id="SVGID_36_" gradientUnits="userSpaceOnUse" x1="244.2631" y1="136.3218" x2="261.0126" y2="165.4131">
				<stop  offset="0" style="stop-color:#FFE63F"/>
				<stop  offset="1" style="stop-color:#00BF8C"/>
			</linearGradient>
			<path class="st38" d="M248.99,137.59c-0.76,1.81-1.37,3.75-1.83,5.77c-0.08,0.37-0.16,0.73-0.23,1.1v0
				c-0.04,0.19-0.07,0.38-0.11,0.57l-0.2-0.32c-0.01-0.01-0.01-0.02-0.02-0.03c0,0,0-0.01-0.01-0.01c-0.01-0.01-0.02-0.03-0.03-0.04
				c0-0.01-0.01-0.01-0.01-0.01c-0.11-0.18-0.22-0.35-0.32-0.5l-0.04-0.05l-0.01-0.01v0c-0.01-0.01-0.02-0.02-0.02-0.03
				c-0.52-0.73-1.47-1.82-2.68-2.09c0.52-2.16,1.21-4.24,2.05-6.19C246.76,136.11,247.92,136.73,248.99,137.59z"/>
			<linearGradient id="SVGID_37_" gradientUnits="userSpaceOnUse" x1="280.2052" y1="171.9574" x2="259.7825" y2="155.9425">
				<stop  offset="0" style="stop-color:#2AA4CA"/>
				<stop  offset="1" style="stop-color:#00BF8C"/>
			</linearGradient>
			<path class="st39" d="M257.55,161.64l-2.86-4.42l-1.95-3.02c-0.01-0.12-0.01-0.24-0.01-0.36c-0.01-0.28-0.02-0.56-0.02-0.84
				l0-0.27l0-0.92v-0.01l0-0.11v-0.04l0.01-0.19l0-0.02c0-0.05,0-0.09,0-0.14c0.02-0.73,0.06-1.46,0.12-2.17
				c0.16-1.86,0.47-3.66,0.92-5.36l2.17,3.36l0.89,1.39c-0.11,0.9-0.17,1.82-0.2,2.75l0,0.02l0,0.04l-0.01,0.37l0,0.14l0,0.85
				l0,0.25c0.02,0.99,0.06,1.97,0.14,2.95C256.9,157.86,257.17,159.78,257.55,161.64z"/>
			<linearGradient id="SVGID_38_" gradientUnits="userSpaceOnUse" x1="273.4742" y1="180.541" x2="253.0515" y2="164.5261">
				<stop  offset="0" style="stop-color:#2AA4CA"/>
				<stop  offset="1" style="stop-color:#00BF8C"/>
			</linearGradient>
			<path class="st40" d="M280.11,181.86c-2.21,1.56-4.57,2.45-6.97,2.6h0c-0.31-0.31-0.62-0.63-0.93-0.96
				c-0.53-0.58-1.05-1.19-1.56-1.83c-0.27-0.34-0.53-0.69-0.79-1.05c-0.02-0.02-0.04-0.05-0.05-0.08c-0.02-0.03-0.04-0.06-0.07-0.09
				c-0.1-0.14-0.2-0.29-0.31-0.44c0.97,0.37,1.95,0.56,2.93,0.57h0.06c0.67,0,1.34-0.09,2.01-0.26c0,0,0,0,0,0
				c0.89-0.23,1.77-0.61,2.64-1.14C278.05,180.23,279.06,181.12,280.11,181.86z"/>
			<linearGradient id="SVGID_39_" gradientUnits="userSpaceOnUse" x1="279.2959" y1="178.2336" x2="292.741" y2="192.5603">
				<stop  offset="0" style="stop-color:#2AA4CA"/>
				<stop  offset="1" style="stop-color:#00BF8C"/>
			</linearGradient>
			<path class="st41" d="M293.45,183.1l-0.08,0.13l-0.06,0.09l-0.09,0.15l-0.05,0.08h-0.11c-0.06,0.08-0.11,0.15-0.17,0.22
				c-0.5,0.66-1.02,1.29-1.56,1.89c-1.82,2.06-3.79,3.79-5.88,5.18h0c-1.82-0.24-3.6-0.74-5.33-1.51c2.47-1.1,4.82-2.74,6.97-4.86
				c0.24,0.01,0.47,0.02,0.71,0.02c0.52,0,1.05-0.04,1.57-0.11c1.06-0.14,2.11-0.43,3.14-0.85
				C292.82,183.4,293.14,183.25,293.45,183.1z"/>
			<linearGradient id="SVGID_40_" gradientUnits="userSpaceOnUse" x1="250.9908" y1="119.519" x2="283.0206" y2="139.3539">
				<stop  offset="0" style="stop-color:#2AA4CA"/>
				<stop  offset="0.0979" style="stop-color:#359DC5"/>
				<stop  offset="0.2702" style="stop-color:#5389B8"/>
				<stop  offset="0.4954" style="stop-color:#826AA3"/>
				<stop  offset="0.5513" style="stop-color:#8F619D"/>
				<stop  offset="0.7472" style="stop-color:#BE4188"/>
				<stop  offset="1" style="stop-color:#FF156A"/>
			</linearGradient>
			<path class="st42" d="M278.32,137.12l0.01,0.01l-2.08,3.21l-1.92-2.97l-0.4-0.62l-0.01-0.01l3.79-5.86
				c0.5,0.62,0.99,1.28,1.45,1.99l0.17,0.27v0l0.46,0.71l0.32,0.5L278.32,137.12z"/>
			<linearGradient id="SVGID_41_" gradientUnits="userSpaceOnUse" x1="228.8703" y1="155.2395" x2="260.9001" y2="175.0744">
				<stop  offset="0" style="stop-color:#2AA4CA"/>
				<stop  offset="0.0979" style="stop-color:#359DC5"/>
				<stop  offset="0.2702" style="stop-color:#5389B8"/>
				<stop  offset="0.4954" style="stop-color:#826AA3"/>
				<stop  offset="0.5513" style="stop-color:#8F619D"/>
				<stop  offset="0.7472" style="stop-color:#BE4188"/>
				<stop  offset="1" style="stop-color:#FF156A"/>
			</linearGradient>
			<path class="st43" d="M256.28,170.59c-1.79,1.77-3.79,2.77-5.83,2.89c-0.58-1.32-1.11-2.69-1.57-4.1
				c0.39,0.14,0.78,0.21,1.16,0.21c1.52,0,3.22-1.15,4.71-3.19C255.19,167.84,255.7,169.25,256.28,170.59z"/>
			<linearGradient id="SVGID_42_" gradientUnits="userSpaceOnUse" x1="288.332" y1="159.6871" x2="254.1684" y2="181.9486">
				<stop  offset="0" style="stop-color:#2AA4CA"/>
				<stop  offset="0.0979" style="stop-color:#359DC5"/>
				<stop  offset="0.2702" style="stop-color:#5389B8"/>
				<stop  offset="0.4954" style="stop-color:#826AA3"/>
				<stop  offset="0.5513" style="stop-color:#8F619D"/>
				<stop  offset="0.7472" style="stop-color:#BE4188"/>
				<stop  offset="1" style="stop-color:#FF156A"/>
			</linearGradient>
			<path class="st44" d="M261.97,179.46c-1.79,1.47-3.72,2.59-5.76,3.33c-0.88-1.01-1.71-2.12-2.5-3.3
				c2.05-0.56,3.99-1.59,5.78-3.06C260.28,177.55,261.11,178.56,261.97,179.46z"/>
			<linearGradient id="SVGID_43_" gradientUnits="userSpaceOnUse" x1="294.6183" y1="169.3344" x2="260.4547" y2="191.5958">
				<stop  offset="0" style="stop-color:#2AA4CA"/>
				<stop  offset="0.0979" style="stop-color:#359DC5"/>
				<stop  offset="0.2702" style="stop-color:#5389B8"/>
				<stop  offset="0.4954" style="stop-color:#826AA3"/>
				<stop  offset="0.5513" style="stop-color:#8F619D"/>
				<stop  offset="0.7472" style="stop-color:#BE4188"/>
				<stop  offset="1" style="stop-color:#FF156A"/>
			</linearGradient>
			<path class="st45" d="M296.33,171.45L296.33,171.45l-2.29,3.54c-0.33-0.44-0.64-0.89-0.95-1.36l-0.01-0.01l-0.66-1.02l-2.1-3.27
				l-0.18-0.28l2.32-3.59l1.14,1.76l0.41,0.63L296.33,171.45z"/>
			<linearGradient id="SVGID_44_" gradientUnits="userSpaceOnUse" x1="292.5463" y1="169.1001" x2="316.0544" y2="140.3028">
				<stop  offset="0" style="stop-color:#2AA4CA"/>
				<stop  offset="0.0979" style="stop-color:#359DC5"/>
				<stop  offset="0.2702" style="stop-color:#5389B8"/>
				<stop  offset="0.4954" style="stop-color:#826AA3"/>
				<stop  offset="0.5513" style="stop-color:#8F619D"/>
				<stop  offset="0.7472" style="stop-color:#BE4188"/>
				<stop  offset="1" style="stop-color:#FF156A"/>
			</linearGradient>
			<polygon class="st46" points="302.53,161.87 302.52,161.87 300.2,165.46 299.06,163.7 297.89,161.86 296.34,159.46 
				298.66,155.86 299.62,157.34 302.35,161.59 			"/>
			<linearGradient id="SVGID_45_" gradientUnits="userSpaceOnUse" x1="314.7325" y1="170.2701" x2="275.6504" y2="139.1219">
				<stop  offset="0" style="stop-color:#2AA4CA"/>
				<stop  offset="0.0979" style="stop-color:#359DC5"/>
				<stop  offset="0.2702" style="stop-color:#5389B8"/>
				<stop  offset="0.4954" style="stop-color:#826AA3"/>
				<stop  offset="0.5513" style="stop-color:#8F619D"/>
				<stop  offset="0.7472" style="stop-color:#BE4188"/>
				<stop  offset="1" style="stop-color:#FF156A"/>
			</linearGradient>
			<polygon class="st47" points="286.31,143.95 282.44,149.94 280.11,146.35 281.67,143.93 283.79,140.66 283.7,140.6 283.71,140.6 
				283.78,140.65 283.89,140.49 283.89,140.49 283.98,140.35 284.01,140.4 286.3,143.94 			"/>
		</g>
		<g>
			<path class="st48" d="M263.89,171.45L263.89,171.45l-0.02,0.03c-0.5,0.76-1.02,1.47-1.57,2.14c-0.31,0.38-0.63,0.74-0.95,1.08
				l-1.36-2.1v0l-2.33-3.6c0.26-0.34,0.52-0.7,0.77-1.08l0.61-0.94l0.98-1.51l1.54,2.39l0.78,1.2L263.89,171.45z"/>
			<polygon class="st48" points="270.08,161.86 267.76,165.45 266.21,163.06 265.43,161.86 263.89,159.46 266.21,155.87 
				267.76,158.26 267.76,158.26 			"/>
			<path class="st48" d="M311.24,137.59c-0.94,0.76-1.81,1.7-2.58,2.81l-0.03,0.05c0,0,0,0,0,0c0,0,0,0.01-0.01,0.01
				c0,0.01-0.01,0.01-0.01,0.02c-0.01,0.01-0.02,0.02-0.02,0.04c-0.15,0.21-0.29,0.44-0.44,0.68c-0.01,0.01-0.02,0.03-0.02,0.04
				c0,0.01-0.01,0.01-0.01,0.02c0,0.01-0.01,0.02-0.02,0.02l-1.62,2.5c-0.42-1.61-0.96-3.14-1.62-4.55
				c-0.01-0.02-0.02-0.05-0.03-0.07c0.05-0.09,0.11-0.18,0.16-0.27c0.02-0.03,0.04-0.06,0.06-0.09c0.08-0.12,0.15-0.23,0.21-0.32
				c0.03-0.05,0.07-0.1,0.1-0.15c0.01-0.01,0.01-0.02,0.02-0.02c0,0,0-0.01,0-0.01l0.22-0.33l0.03-0.03
				c1.13-1.58,2.42-2.88,3.84-3.9C310.12,135.15,310.71,136.34,311.24,137.59z"/>
			<path class="st48" d="M314.02,151.27l-0.97,1.51h0l-1.91,2.95l-2.33,3.6l-2.48,3.83c0.36-1.59,0.64-3.22,0.83-4.89
				c0.16-1.34,0.27-2.7,0.32-4.07l0.17-0.26l2.12-3.28l3.63-5.63c0.35,1.97,0.56,4.02,0.61,6.1
				C314.02,151.18,314.02,151.22,314.02,151.27z"/>
			<path class="st48" d="M303.95,170.59c-0.74,1.73-1.6,3.35-2.55,4.85l-0.01,0.01c-0.06,0.09-0.11,0.17-0.17,0.26
				c-0.16,0.25-0.33,0.49-0.49,0.73c-0.64-0.52-1.25-1.1-1.85-1.73l0.73-1.13l0.53-0.83l0.07-0.11l0.02-0.03l2.33-3.6
				C303.01,169.58,303.47,170.11,303.95,170.59z"/>
			<path class="st48" d="M314.52,172.13c-1.02,2.79-2.26,5.43-3.7,7.84v0c-0.21,0.01-0.42,0.01-0.63,0.01
				c-1.25,0-2.48-0.17-3.68-0.5c0.05-0.07,0.1-0.15,0.15-0.22c0.06-0.1,0.13-0.19,0.19-0.29l0.02-0.03c1.09-1.7,2.06-3.53,2.91-5.47
				c0.14,0.01,0.27,0.01,0.41,0.01C311.67,173.48,313.14,173.02,314.52,172.13z"/>
			<path class="st48" d="M248.99,137.59c-0.76,1.81-1.37,3.75-1.83,5.77c-0.08,0.37-0.16,0.73-0.23,1.1v0
				c-0.04,0.19-0.07,0.38-0.11,0.57l-0.2-0.32c-0.01-0.01-0.01-0.02-0.02-0.03c0,0,0-0.01-0.01-0.01c-0.01-0.01-0.02-0.03-0.03-0.04
				c0-0.01-0.01-0.01-0.01-0.01c-0.11-0.18-0.22-0.35-0.32-0.5l-0.04-0.05l-0.01-0.01v0c-0.01-0.01-0.02-0.02-0.02-0.03
				c-0.52-0.73-1.47-1.82-2.68-2.09c0.52-2.16,1.21-4.24,2.05-6.19C246.76,136.11,247.92,136.73,248.99,137.59z"/>
			<path class="st48" d="M257.55,161.64l-2.86-4.42l-1.95-3.02c-0.01-0.12-0.01-0.24-0.01-0.36c-0.01-0.28-0.02-0.56-0.02-0.84
				l0-0.27l0-0.92v-0.01l0-0.11v-0.04l0.01-0.19l0-0.02c0-0.05,0-0.09,0-0.14c0.02-0.73,0.06-1.46,0.12-2.17
				c0.16-1.86,0.47-3.66,0.92-5.36l2.17,3.36l0.89,1.39c-0.11,0.9-0.17,1.82-0.2,2.75l0,0.02l0,0.04l-0.01,0.37l0,0.14l0,0.85
				l0,0.25c0.02,0.99,0.06,1.97,0.14,2.95C256.9,157.86,257.17,159.78,257.55,161.64z"/>
			<path class="st48" d="M280.11,181.86c-2.21,1.56-4.57,2.45-6.97,2.6h0c-0.31-0.31-0.62-0.63-0.93-0.96
				c-0.53-0.58-1.05-1.19-1.56-1.83c-0.27-0.34-0.53-0.69-0.79-1.05c-0.02-0.02-0.04-0.05-0.05-0.08c-0.02-0.03-0.04-0.06-0.07-0.09
				c-0.1-0.14-0.2-0.29-0.31-0.44c0.97,0.37,1.95,0.56,2.93,0.57h0.06c0.67,0,1.34-0.09,2.01-0.26c0,0,0,0,0,0
				c0.89-0.23,1.77-0.61,2.64-1.14C278.05,180.23,279.06,181.12,280.11,181.86z"/>
			<path class="st48" d="M293.45,183.1l-0.08,0.13l-0.06,0.09l-0.09,0.15l-0.05,0.08h-0.11c-0.06,0.08-0.11,0.15-0.17,0.22
				c-0.5,0.66-1.02,1.29-1.56,1.89c-1.82,2.06-3.79,3.79-5.88,5.18h0c-1.82-0.24-3.6-0.74-5.33-1.51c2.47-1.1,4.82-2.74,6.97-4.86
				c0.24,0.01,0.47,0.02,0.71,0.02c0.52,0,1.05-0.04,1.57-0.11c1.06-0.14,2.11-0.43,3.14-0.85
				C292.82,183.4,293.14,183.25,293.45,183.1z"/>
			<path class="st48" d="M278.32,137.12l0.01,0.01l-2.08,3.21l-1.92-2.97l-0.4-0.62l-0.01-0.01l3.79-5.86
				c0.5,0.62,0.99,1.28,1.45,1.99l0.17,0.27v0l0.46,0.71l0.32,0.5L278.32,137.12z"/>
			<path class="st48" d="M256.28,170.59c-1.79,1.77-3.79,2.77-5.83,2.89c-0.58-1.32-1.11-2.69-1.57-4.1
				c0.39,0.14,0.78,0.21,1.16,0.21c1.52,0,3.22-1.15,4.71-3.19C255.19,167.84,255.7,169.25,256.28,170.59z"/>
			<path class="st48" d="M261.97,179.46c-1.79,1.47-3.72,2.59-5.76,3.33c-0.88-1.01-1.71-2.12-2.5-3.3
				c2.05-0.56,3.99-1.59,5.78-3.06C260.28,177.55,261.11,178.56,261.97,179.46z"/>
			<path class="st48" d="M296.33,171.45L296.33,171.45l-2.29,3.54c-0.33-0.44-0.64-0.89-0.95-1.36l-0.01-0.01l-0.66-1.02l-2.1-3.27
				l-0.18-0.28l2.32-3.59l1.14,1.76l0.41,0.63L296.33,171.45z"/>
			<polygon class="st48" points="302.53,161.87 302.52,161.87 300.2,165.46 299.06,163.7 297.89,161.86 296.34,159.46 
				298.66,155.86 299.62,157.34 302.35,161.59 			"/>
			<polygon class="st48" points="286.31,143.95 282.44,149.94 280.11,146.35 281.67,143.93 283.79,140.66 283.7,140.6 283.71,140.6 
				283.78,140.65 283.89,140.49 283.89,140.49 283.98,140.35 284.01,140.4 286.3,143.94 			"/>
		</g>
		<linearGradient id="SVGID_46_" gradientUnits="userSpaceOnUse" x1="311.466" y1="174.3686" x2="272.3839" y2="143.2204">
			<stop  offset="0" style="stop-color:#2AA4CA"/>
			<stop  offset="0.0979" style="stop-color:#359DC5"/>
			<stop  offset="0.2702" style="stop-color:#5389B8"/>
			<stop  offset="0.4954" style="stop-color:#826AA3"/>
			<stop  offset="0.5513" style="stop-color:#8F619D"/>
			<stop  offset="0.7472" style="stop-color:#BE4188"/>
			<stop  offset="1" style="stop-color:#FF156A"/>
		</linearGradient>
		<path class="st49" d="M302.56,169l-2.33,3.6v0l-0.02,0.03l-0.07,0.11l-1.27,1.96c-0.33-0.35-0.64-0.71-0.95-1.08
			c-0.55-0.66-1.07-1.38-1.57-2.14l-0.02-0.03v0l-2.32-3.6l-0.41-0.63l-1.14-1.76l-2.32-3.59l-2.4-3.71l-0.01,0.01l-5.31-8.22
			l3.87-5.99l4.17,6.46h0.01l3.53,5.46l2.32,3.59l1.54,2.4l1.18,1.83l1.14,1.76v0l0.98,1.51v0l0.61,0.94
			C302.04,168.3,302.3,168.66,302.56,169z"/>
	</g>
</g>
<g>
	<path class="st50" d="M142.92,252.68h-1.13v-2.64h-6.34v-1.32h6.34v-3.96h-4.07c-0.51,0-0.99,0.15-1.42,0.44
		c-0.43,0.3-0.77,0.69-1.03,1.19c-0.25,0.5-0.38,1.06-0.38,1.66v4.62h-1.13v-4.62c0-0.63,0.1-1.23,0.31-1.79
		c0.2-0.56,0.49-1.05,0.85-1.48c0.36-0.43,0.78-0.76,1.26-1c0.48-0.24,0.99-0.36,1.54-0.36h5.2V252.68z"/>
	<path class="st50" d="M162.4,243.44l-0.01,4.62c0,0.64-0.1,1.24-0.31,1.8c-0.2,0.56-0.49,1.05-0.85,1.47s-0.78,0.75-1.26,0.99
		c-0.48,0.24-0.99,0.36-1.54,0.36h-0.84c-0.54,0-1.06-0.12-1.54-0.36c-0.48-0.24-0.9-0.57-1.26-1s-0.65-0.92-0.85-1.48
		c-0.2-0.56-0.31-1.15-0.31-1.79v-4.62h1.13v4.62c0,0.61,0.13,1.16,0.38,1.66c0.25,0.5,0.6,0.9,1.03,1.19
		c0.43,0.3,0.9,0.45,1.42,0.45h0.84c0.52,0,1-0.15,1.42-0.45c0.43-0.3,0.77-0.7,1.02-1.19c0.25-0.5,0.38-1.05,0.38-1.66v-4.62H162.4
		z"/>
	<path class="st50" d="M177.41,252.68h-1.13v-7.92h-4.01v-1.32h9.16v1.32h-4.01V252.68z"/>
	<path class="st50" d="M192.69,252.68h-1.13v-9.24h1.13V252.68z M199.94,252.68h-1.13v-3.96h-5.54v-1.32h5.54v-3.96h1.13V252.68z"/>
	<path class="st50" d="M219.12,252.68h-8.21v-9.24h8.21v1.32h-7.07v6.6h7.07V252.68z M218.16,248.72h-5.54v-1.32h5.54V248.72z"/>
	<path class="st50" d="M230.73,252.68h-1.13v-9.24h0.57c0.55,0,1.15,0.12,1.8,0.37c0.65,0.25,1.29,0.59,1.94,1.04
		c0.65,0.45,1.26,0.98,1.84,1.6c0.58,0.62,1.07,1.31,1.49,2.07v-5.08h1.13v9.24h-1.13c0-0.81-0.14-1.59-0.43-2.33
		s-0.66-1.43-1.13-2.06c-0.47-0.63-0.99-1.19-1.56-1.68c-0.57-0.49-1.15-0.89-1.74-1.2c-0.59-0.31-1.14-0.51-1.65-0.6V252.68z"/>
	<path class="st50" d="M253.65,252.68h-1.13v-7.92h-4.01v-1.32h9.16v1.32h-4.01V252.68z"/>
	<path class="st50" d="M268.94,252.68h-1.13v-9.24h1.13V252.68z"/>
	<path class="st50" d="M288.22,252.68h-5.11c-0.55,0-1.05-0.12-1.5-0.36c-0.45-0.24-0.83-0.57-1.15-0.99
		c-0.32-0.42-0.57-0.91-0.74-1.47c-0.17-0.56-0.26-1.16-0.26-1.8c0-0.63,0.09-1.23,0.26-1.79c0.17-0.56,0.42-1.05,0.74-1.48
		c0.32-0.43,0.7-0.76,1.15-1c0.45-0.24,0.95-0.36,1.5-0.36h5.11v1.32h-5.11c-0.52,0-0.97,0.15-1.34,0.44
		c-0.37,0.3-0.66,0.69-0.87,1.19c-0.2,0.5-0.31,1.06-0.31,1.66c0,0.61,0.1,1.16,0.31,1.66c0.2,0.5,0.49,0.9,0.87,1.19
		c0.37,0.3,0.82,0.45,1.34,0.45h5.11V252.68z"/>
	<path class="st50" d="M315.94,252.68h-1.13v-7.92h-4.01v-1.32h9.16v1.32h-4.01V252.68z"/>
	<path class="st50" d="M338.65,252.68h-1.13v-2.64h-6.34v-1.32h6.34v-3.96h-4.07c-0.51,0-0.99,0.15-1.42,0.44
		c-0.43,0.3-0.77,0.69-1.03,1.19c-0.25,0.5-0.38,1.06-0.38,1.66v4.62h-1.13v-4.62c0-0.63,0.1-1.23,0.31-1.79
		c0.2-0.56,0.49-1.05,0.85-1.48c0.36-0.43,0.78-0.76,1.26-1c0.48-0.24,0.99-0.36,1.54-0.36h5.2V252.68z"/>
	<path class="st50" d="M357.21,252.68h-7.58v-9.24h1.13v7.92h6.45V252.68z"/>
	<path class="st50" d="M375.55,252.68h-8.21v-9.24h8.21v1.32h-7.07v6.6h7.07V252.68z M374.59,248.72h-5.54v-1.32h5.54V248.72z"/>
	<path class="st50" d="M387.16,252.68h-1.13v-9.24h0.57c0.55,0,1.15,0.12,1.8,0.37c0.65,0.25,1.29,0.59,1.94,1.04
		c0.65,0.45,1.26,0.98,1.84,1.6c0.58,0.62,1.07,1.31,1.49,2.07v-5.08h1.13v9.24h-1.13c0-0.81-0.14-1.59-0.43-2.33
		c-0.28-0.74-0.66-1.43-1.13-2.06c-0.47-0.63-0.99-1.19-1.56-1.68c-0.57-0.49-1.15-0.89-1.74-1.2c-0.59-0.31-1.14-0.51-1.65-0.6
		V252.68z"/>
	<path class="st50" d="M410.09,252.68h-1.13v-7.92h-4.01v-1.32h9.16v1.32h-4.01V252.68z"/>
	<path class="st50" d="M433,250.04c0,0.48-0.1,0.93-0.31,1.33c-0.2,0.4-0.48,0.72-0.82,0.96c-0.34,0.24-0.72,0.36-1.14,0.36h-6.89
		v-1.32h6.89c0.32,0,0.59-0.13,0.8-0.39c0.22-0.26,0.33-0.57,0.33-0.93c0-0.36-0.11-0.67-0.33-0.93c-0.22-0.26-0.49-0.39-0.8-0.39
		h-4.63c-0.42,0-0.8-0.12-1.14-0.36c-0.34-0.24-0.62-0.56-0.82-0.96c-0.2-0.4-0.31-0.84-0.31-1.33c0-0.48,0.1-0.93,0.31-1.33
		c0.2-0.4,0.48-0.72,0.82-0.96c0.34-0.24,0.72-0.36,1.14-0.36h6.33v1.32h-6.33c-0.31,0-0.58,0.13-0.8,0.39
		c-0.22,0.26-0.33,0.57-0.33,0.93c0,0.36,0.11,0.67,0.33,0.93c0.22,0.26,0.49,0.39,0.8,0.39h4.63c0.42,0,0.8,0.12,1.14,0.36
		c0.34,0.24,0.61,0.56,0.82,0.96C432.9,249.12,433,249.56,433,250.04z"/>
</g>
<path class="st51" d="M155.19,211.61l-13.67,25.99h-4.23l-13.67-25.99h4.23l11.55,21.98l11.55-21.98H155.19z"/>
<path class="st51" d="M189.6,238.79h-28.27v-27.33h28.27v3.9h-24.36v19.52h24.36V238.79z M186.28,227.08h-19.09v-3.9h19.09V227.08z"
	/>
<path class="st51" d="M214.18,238.79h-3.9v-23.43h-13.82v-3.9H228v3.9h-13.82V238.79z"/>
<path class="st51" d="M253.04,238.79h-3.9v-23.43h-13.82v-3.9h31.55v3.9h-13.82V238.79z"/>
<path class="st51" d="M351.77,238.78h-3.9v-27.3h3.9V238.78z"/>
<path class="st51" d="M363.85,238.78h-3.9v-27.3h1.95c1.9,0,3.96,0.36,6.18,1.09c2.22,0.73,4.45,1.75,6.69,3.08
	c2.24,1.33,4.35,2.9,6.34,4.74c1.99,1.83,3.7,3.87,5.13,6.1v-15.01h3.9v27.3h-3.9c0-2.39-0.49-4.69-1.46-6.88
	c-0.97-2.2-2.27-4.23-3.88-6.08c-1.61-1.86-3.4-3.51-5.36-4.95c-1.96-1.44-3.96-2.63-5.99-3.55c-2.03-0.92-3.93-1.51-5.69-1.77
	V238.78z"/>
<path class="st51" d="M431.7,238.78h-5.26l-13.92-14.04l-8.66,6.24v7.8h-3.9v-27.3h3.9v15.21l21.41-15.21h5.69l-15.48,11.12
	L431.7,238.78z"/>
<polygon class="st50" points="315.45,233.73 315.45,211.07 311.55,211.07 311.55,238.36 315.44,238.36 315.44,233.73 "/>
<rect x="318.84" y="234.49" class="st51" width="21.03" height="3.88"/>
<g>
	<path class="st50" d="M302.52,238.07h-3.88v-7.76h-21.7v-3.88h21.7v-11.64h-13.93c-1.76,0-3.38,0.43-4.85,1.3
		c-1.47,0.87-2.65,2.04-3.51,3.51c-0.87,1.47-1.3,3.11-1.3,4.89v13.59h-3.88v-13.59c0-1.86,0.35-3.62,1.05-5.26
		c0.7-1.64,1.67-3.09,2.91-4.35c1.24-1.25,2.68-2.23,4.33-2.93s3.4-1.05,5.26-1.05h17.82V238.07z"/>
</g>
</svg>
